<?xml version="1.0" encoding="UTF-8"?>
<!DOCTYPE svg PUBLIC "-//W3C//DTD SVG 1.1//EN" "http://www.w3.org/Graphics/SVG/1.1/DTD/svg11.dtd">
<!-- Creator: CorelDRAW 2021.5 -->
<svg xmlns="http://www.w3.org/2000/svg" xml:space="preserve" width="2.032mm" height="2.032mm" version="1.1" style="shape-rendering:geometricPrecision; text-rendering:geometricPrecision; image-rendering:optimizeQuality; fill-rule:evenodd; clip-rule:evenodd"
viewBox="0 0 189.88 189.88"
 xmlns:xlink="http://www.w3.org/1999/xlink"
 xmlns:xodm="http://www.corel.com/coreldraw/odm/2003">
 <defs>
  <style type="text/css">
   <![CDATA[
    .fil0 {fill:none}
    .fil1 {fill:url(#id0);fill-rule:nonzero}
   ]]>
  </style>
  <linearGradient id="id0" gradientUnits="userSpaceOnUse" x1="132.48" y1="102.86" x2="132.48" y2="145.27">
   <stop offset="0" style="stop-opacity:1; stop-color:#6860CC"/>
   <stop offset="1" style="stop-opacity:1; stop-color:#857BFB"/>
  </linearGradient>
 </defs>
 <g id="Слой_x0020_1">
  <metadata id="CorelCorpID_0Corel-Layer"/>
  <rect class="fil0" width="189.88" height="189.88"/>
  <path class="fil1" d="M94.94 30.22c-17.88,0 -34.06,7.24 -45.77,18.96 -11.72,11.71 -18.96,27.89 -18.96,45.77 0,17.87 7.24,34.05 18.96,45.77 11.71,11.71 27.89,18.96 45.77,18.96 17.87,0 34.05,-7.25 45.77,-18.96 11.71,-11.72 18.96,-27.9 18.96,-45.77 0,-17.88 -7.25,-34.06 -18.96,-45.77 -11.72,-11.72 -27.9,-18.96 -45.77,-18.96zm-55.94 8.78c14.32,-14.32 34.1,-23.16 55.94,-23.16 21.84,0 41.63,8.85 55.93,23.16 14.32,14.32 23.17,34.1 23.17,55.94 0,21.84 -8.86,41.63 -23.17,55.93 -14.31,14.32 -34.1,23.17 -55.93,23.17 -21.85,0 -41.63,-8.86 -55.94,-23.17 -14.32,-14.31 -23.17,-34.1 -23.17,-55.93 0,-21.85 8.86,-41.63 23.17,-55.94zm61.03 89.8c-2.8,2.8 -7.36,2.8 -10.18,0 -2.8,-2.81 -2.8,-7.36 0,-10.18l16.49 -16.49 -40.17 0c-3.97,0 -7.2,-3.21 -7.2,-7.19 0,-3.97 3.22,-7.2 7.2,-7.2l40.17 0 -16.49 -16.49c-2.8,-2.8 -2.8,-7.36 0,-10.17 2.81,-2.81 7.37,-2.81 10.18,0l28.77 28.77 0.11 0.12 0.02 0.01 0.1 0.11 0.02 0.02 0.09 0.11 0.03 0.03 0.08 0.1 0.03 0.04 0.08 0.1 0.03 0.04 0.07 0.09 0.04 0.06 0.07 0.08 0.04 0.06 0.07 0.09 0.04 0.06 0.06 0.08 0.18 0.3 0.05 0.07 0.04 0.07 0.05 0.08 0.04 0.07 0.07 0.15 0.05 0.09 0.03 0.07 0.04 0.09 0.03 0.07 0.05 0.09 0.02 0.07 0.05 0.08 0.02 0.07 0.04 0.09 0.03 0.07 0.03 0.09 0.02 0.07 0.03 0.09 0.03 0.07 0.02 0.08 0.03 0.08 0.02 0.09 0.02 0.08 0.02 0.08 0.02 0.09 0.02 0.07 0.02 0.1 0.01 0.07 0.02 0.11 0.01 0.06 0.02 0.12 0 0.06 0.02 0.12 0.01 0.05 0.01 0.13 0 0.04 0.01 0.15 0 0.03 0.01 0.16 0 0.01 0 0.18 0 0.17 0 0.02 -0.01 0.16 0 0.02 -0.01 0.15 0 0.04 -0.01 0.14 -0.01 0.04 -0.02 0.13 0 0.06 -0.02 0.11 -0.01 0.07 -0.02 0.11 -0.01 0.07 -0.02 0.1 -0.02 0.07 -0.02 0.09 -0.02 0.07 -0.02 0.09 -0.02 0.08 -0.03 0.08 -0.02 0.08 -0.03 0.08 -0.03 0.09 -0.02 0.07 -0.03 0.09 -0.03 0.07 -0.04 0.09 -0.02 0.07 -0.05 0.09 -0.02 0.07 -0.05 0.08 -0.03 0.07 -0.04 0.09 -0.03 0.07 -0.05 0.08 -0.07 0.16 -0.04 0.07 -0.05 0.08 -0.04 0.07 -0.05 0.08 -0.18 0.3 -0.06 0.07 -0.04 0.07 -0.07 0.08 -0.04 0.06 -0.07 0.09 -0.04 0.05 -0.07 0.09 -0.03 0.05 -0.08 0.1 -0.03 0.03 -0.08 0.11 -0.03 0.02 -0.09 0.11 -0.02 0.02 -0.1 0.12 -0.02 0.01 -0.11 0.12 -28.77 28.77z"/>
 </g>
</svg>
