<?xml version="1.0" encoding="UTF-8"?>
<!DOCTYPE svg PUBLIC "-//W3C//DTD SVG 1.1//EN" "http://www.w3.org/Graphics/SVG/1.1/DTD/svg11.dtd">
<!-- Creator: CorelDRAW 2021.5 -->
<svg xmlns="http://www.w3.org/2000/svg" xml:space="preserve" width="2.032mm" height="2.032mm" version="1.1" style="shape-rendering:geometricPrecision; text-rendering:geometricPrecision; image-rendering:optimizeQuality; fill-rule:evenodd; clip-rule:evenodd"
viewBox="0 0 189.88 189.88"
 xmlns:xlink="http://www.w3.org/1999/xlink"
 xmlns:xodm="http://www.corel.com/coreldraw/odm/2003">
 <defs>
  <style type="text/css">
   <![CDATA[
    .fil0 {fill:none}
    .fil1 {fill:url(#id0);fill-rule:nonzero}
   ]]>
  </style>
  <linearGradient id="id0" gradientUnits="userSpaceOnUse" x1="133.83" y1="99.67" x2="133.83" y2="124.98">
   <stop offset="0" style="stop-opacity:1; stop-color:#6860CC"/>
   <stop offset="1" style="stop-opacity:1; stop-color:#857BFB"/>
  </linearGradient>
 </defs>
 <g id="Слой_x0020_1">
  <metadata id="CorelCorpID_0Corel-Layer"/>
  <rect class="fil0" width="189.88" height="189.88"/>
  <path class="fil1" d="M171.74 47.73l0.03 0 0.11 0.01 0.03 0 0.09 0.01 0.05 0.01 0.36 0.06 0.06 0.01 0.21 0.05 0.07 0.02 0.07 0.02 0.13 0.04 0.07 0.02 0.06 0.02 0.07 0.02 0.06 0.02 0.13 0.05 0.07 0.03 0.06 0.03 0.07 0.03 0.05 0.02 0.07 0.03 0.06 0.03 0.07 0.04 0.06 0.02 0.07 0.04 0.06 0.03 0.07 0.04 0.06 0.03 0.06 0.03 0.06 0.04 0.07 0.04 0.06 0.04 0.06 0.04 0.07 0.04 0.05 0.03 0.07 0.05 0.05 0.03 0.07 0.06 0.04 0.03 0.19 0.14 0.02 0.03 0.08 0.07 0.03 0.02 0.08 0.07 0.01 0.01 0.09 0.08 0.01 0.01 0.09 0.09 0.09 0.09 0 0.01 0.08 0.09 0.02 0.01 0.07 0.08 0.02 0.03 0.07 0.07 0.03 0.03 0.14 0.19 0.03 0.04 0.05 0.07 0.04 0.05 0.05 0.07 0.03 0.05 0.04 0.07 0.04 0.06 0.04 0.06 0.03 0.06 0.04 0.07 0.04 0.06 0.03 0.06 0.04 0.07 0.03 0.06 0.04 0.07 0.02 0.06 0.04 0.07 0.03 0.06 0.03 0.07 0.02 0.05 0.03 0.07 0.03 0.05 0.02 0.07 0.05 0.13 0.03 0.06 0.02 0.07 0.02 0.06 0.02 0.07 0.04 0.13 0.02 0.07 0.02 0.07 0.05 0.21 0.01 0.06 0.06 0.36 0.01 0.04 0.01 0.1 0 0.03 0.01 0.11 0 0.03 0.02 0.39 0 41.68c0,3.06 -2.49,5.56 -5.56,5.56 -3.06,0 -5.55,-2.49 -5.55,-5.56l0 -28.26 -56.5 56.5c-2.17,2.17 -5.69,2.17 -7.86,0l-30.78 -30.83 -48.18 48.18c-2.17,2.17 -5.68,2.17 -7.85,0 -2.17,-2.17 -2.17,-5.68 0,-7.85l52.09 -52.1c2.19,-2.15 5.7,-2.14 7.86,0.03l30.78 30.8 52.58 -52.59 -28.26 0c-3.07,0 -5.56,-2.49 -5.56,-5.56 0,-3.06 2.49,-5.55 5.56,-5.55l41.67 0 0.4 0.02z"/>
 </g>
</svg>
