<?xml version="1.0" encoding="UTF-8"?>
<!DOCTYPE svg PUBLIC "-//W3C//DTD SVG 1.1//EN" "http://www.w3.org/Graphics/SVG/1.1/DTD/svg11.dtd">
<!-- Creator: CorelDRAW 2021.5 -->
<svg xmlns="http://www.w3.org/2000/svg" xml:space="preserve" width="2.032mm" height="2.032mm" version="1.1" style="shape-rendering:geometricPrecision; text-rendering:geometricPrecision; image-rendering:optimizeQuality; fill-rule:evenodd; clip-rule:evenodd"
viewBox="0 0 189.88 189.88"
 xmlns:xlink="http://www.w3.org/1999/xlink"
 xmlns:xodm="http://www.corel.com/coreldraw/odm/2003">
 <defs>
  <style type="text/css">
   <![CDATA[
    .fil0 {fill:none}
    .fil1 {fill:url(#id0);fill-rule:nonzero}
   ]]>
  </style>
  <linearGradient id="id0" gradientUnits="userSpaceOnUse" x1="132.49" y1="102.84" x2="132.49" y2="145.26">
   <stop offset="0" style="stop-opacity:1; stop-color:#6860CC"/>
   <stop offset="1" style="stop-opacity:1; stop-color:#857BFB"/>
  </linearGradient>
 </defs>
 <g id="Слой_x0020_1">
  <metadata id="CorelCorpID_0Corel-Layer"/>
  <rect class="fil0" width="189.88" height="189.88"/>
  <path class="fil1" d="M160.99 94.93c0,-18.23 -7.4,-34.74 -19.34,-46.69 -11.95,-11.95 -28.47,-19.35 -46.7,-19.35 -18.24,0 -34.75,7.4 -46.7,19.35 -11.95,11.95 -19.34,28.46 -19.34,46.69 0,18.24 7.39,34.75 19.34,46.7 11.95,11.95 28.46,19.35 46.7,19.35 18.23,0 34.75,-7.4 46.7,-19.35 11.94,-11.95 19.34,-28.46 19.34,-46.7zm-10.1 -55.93c14.31,14.31 23.16,34.09 23.16,55.93 0,21.85 -8.86,41.63 -23.16,55.94 -14.32,14.32 -34.11,23.17 -55.94,23.17 -21.85,0 -41.63,-8.86 -55.94,-23.17 -14.32,-14.32 -23.17,-34.1 -23.17,-55.94 0,-21.85 8.86,-41.63 23.17,-55.93 14.32,-14.32 34.1,-23.17 55.94,-23.17 21.84,0 41.63,8.86 55.94,23.17zm-22.59 45.85c-0.11,-5.09 -1.92,-10 -5.14,-13.95 -2.64,-3.48 -6.31,-6.06 -10.47,-7.37 -2.24,-0.78 -4.75,-1.16 -7.18,-1.16l-30.82 0 0 34.7 -7.76 0 0 10.28 7.76 0 0 7.56 -7.76 0 0 8.63 7.76 0 0 8.62 10.94 0 0 -8.62 19.09 0 0 -8.63 -19.09 0 0 -7.56 19.88 0c7.17,0 13.85,-3.39 17.93,-8.72 3,-3.78 4.94,-8.82 4.84,-13.76l0 -0.01zm-13.76 7.56c-2.23,2.91 -5.91,4.65 -9.11,4.65l-19.76 0 0 -24.43 19.76 0c3.1,0 6.49,1.75 8.52,4.07 2.05,2.13 3.11,5.14 3.21,8.16 0.09,2.78 -0.96,5.41 -2.63,7.54l0.01 0z"/>
 </g>
</svg>
