<?xml version="1.0" encoding="UTF-8"?>
<!DOCTYPE svg PUBLIC "-//W3C//DTD SVG 1.1//EN" "http://www.w3.org/Graphics/SVG/1.1/DTD/svg11.dtd">
<!-- Creator: CorelDRAW 2021.5 -->
<svg xmlns="http://www.w3.org/2000/svg" xml:space="preserve" width="2.032mm" height="2.032mm" version="1.1" style="shape-rendering:geometricPrecision; text-rendering:geometricPrecision; image-rendering:optimizeQuality; fill-rule:evenodd; clip-rule:evenodd"
viewBox="0 0 189.88 189.88"
 xmlns:xlink="http://www.w3.org/1999/xlink"
 xmlns:xodm="http://www.corel.com/coreldraw/odm/2003">
 <defs>
  <style type="text/css">
   <![CDATA[
    .fil0 {fill:none}
    .fil1 {fill:url(#id0);fill-rule:nonzero}
   ]]>
  </style>
  <linearGradient id="id0" gradientUnits="userSpaceOnUse" x1="130.7" y1="92.77" x2="130.7" y2="143.77">
   <stop offset="0" style="stop-opacity:1; stop-color:#6860CC"/>
   <stop offset="1" style="stop-opacity:1; stop-color:#857BFB"/>
  </linearGradient>
 </defs>
 <g id="Слой_x0020_1">
  <metadata id="CorelCorpID_0Corel-Layer"/>
  <polygon class="fil0" points="-0,0 189.88,0 189.88,189.88 -0,189.88 "/>
  <path class="fil1" d="M132.61 144.92l-24.35 -42.21 48.7 0c-2.17,16.71 -10.96,31.88 -24.35,42.21l0 0zm-37.99 12.88c-34.56,-0.25 -62.48,-28.3 -62.48,-62.86 0,-31.5 23.33,-58.15 54.57,-62.35l0 62.35c0,0.89 0.25,1.91 0.51,2.8l0 1.15 31.49 54.06c-7.65,3.32 -15.81,4.98 -24.1,4.98l0 0 0 -0.13zm7.91 -125.21c28.43,3.57 50.87,26.01 54.44,54.45l-54.44 0 0 -54.45zm-7.91 -16.32c0,0 -0.13,0 -0.13,0 -43.35,0 -78.67,35.19 -78.67,78.67 0,43.36 35.19,78.67 78.67,78.67 13.64,0 27.03,-3.57 38.89,-10.33l0.89 0c24.61,-14.03 39.79,-40.04 39.79,-68.34 0,-43.36 -35.19,-78.67 -78.67,-78.67 -0.26,0 -0.51,0 -0.77,0l0 0z"/>
 </g>
</svg>
