<?xml version="1.0" encoding="UTF-8"?>
<!DOCTYPE svg PUBLIC "-//W3C//DTD SVG 1.1//EN" "http://www.w3.org/Graphics/SVG/1.1/DTD/svg11.dtd">
<!-- Creator: CorelDRAW 2021.5 -->
<svg xmlns="http://www.w3.org/2000/svg" xml:space="preserve" width="2.032mm" height="2.032mm" version="1.1" style="shape-rendering:geometricPrecision; text-rendering:geometricPrecision; image-rendering:optimizeQuality; fill-rule:evenodd; clip-rule:evenodd"
viewBox="0 0 189.88 189.88"
 xmlns:xlink="http://www.w3.org/1999/xlink"
 xmlns:xodm="http://www.corel.com/coreldraw/odm/2003">
 <defs>
  <style type="text/css">
   <![CDATA[
    .fil0 {fill:none}
    .fil1 {fill:url(#id0);fill-rule:nonzero}
   ]]>
  </style>
  <linearGradient id="id0" gradientUnits="userSpaceOnUse" x1="94.93" y1="26.68" x2="94.93" y2="163.21">
   <stop offset="0" style="stop-opacity:1; stop-color:#6860CC"/>
   <stop offset="1" style="stop-opacity:1; stop-color:#857BFB"/>
  </linearGradient>
 </defs>
 <g id="Слой_x0020_1">
  <metadata id="CorelCorpID_0Corel-Layer"/>
  <polygon class="fil0" points="-0,0 189.88,0 189.88,189.88 -0,189.88 "/>
  <path class="fil1" d="M156.38 149.55l-6.83 0 0 -102.4c0,-3.77 -3.06,-6.82 -6.82,-6.82 -3.78,0 -6.83,3.06 -6.83,6.82l0 102.4 -13.65 0 0 -75.1c0,-3.77 -3.06,-6.82 -6.83,-6.82 -3.77,0 -6.82,3.06 -6.82,6.82l0 75.1 -13.66 0 0 -47.79c0,-3.78 -3.05,-6.83 -6.82,-6.83 -3.77,0 -6.83,3.06 -6.83,6.83l0 47.79 -13.65 0 0 -20.48c0,-3.78 -3.06,-6.83 -6.82,-6.83 -3.78,0 -6.83,3.06 -6.83,6.83l0 20.48 -13.65 0 0 -116.06c0,-3.78 -3.06,-6.83 -6.83,-6.83 -3.77,0 -6.82,3.06 -6.82,6.83l0 122.88c0,3.78 3.06,6.83 6.82,6.83l122.89 0c3.77,0 6.83,-3.06 6.83,-6.83 0,-3.77 -3.06,-6.82 -6.83,-6.82l0 0z"/>
 </g>
</svg>
