<?xml version="1.0" encoding="UTF-8"?>
<!DOCTYPE svg PUBLIC "-//W3C//DTD SVG 1.1//EN" "http://www.w3.org/Graphics/SVG/1.1/DTD/svg11.dtd">
<!-- Creator: CorelDRAW 2021.5 -->
<svg xmlns="http://www.w3.org/2000/svg" xml:space="preserve" width="2.032mm" height="2.032mm" version="1.1" style="shape-rendering:geometricPrecision; text-rendering:geometricPrecision; image-rendering:optimizeQuality; fill-rule:evenodd; clip-rule:evenodd"
viewBox="0 0 189.88 189.88"
 xmlns:xlink="http://www.w3.org/1999/xlink"
 xmlns:xodm="http://www.corel.com/coreldraw/odm/2003">
 <defs>
  <style type="text/css">
   <![CDATA[
    .fil0 {fill:none}
    .fil1 {fill:url(#id0);fill-rule:nonzero}
   ]]>
  </style>
  <linearGradient id="id0" gradientUnits="userSpaceOnUse" x1="94.93" y1="15.81" x2="94.93" y2="174.06">
   <stop offset="0" style="stop-opacity:1; stop-color:#6860CC"/>
   <stop offset="1" style="stop-opacity:1; stop-color:#857BFB"/>
  </linearGradient>
 </defs>
 <g id="Слой_x0020_1">
  <metadata id="CorelCorpID_0Corel-Layer"/>
  <polygon class="fil0" points="-0,0 189.88,0 189.88,189.88 -0,189.88 "/>
  <path class="fil1" d="M94.93 15.82c-43.68,0 -79.12,35.43 -79.12,79.12 0,43.68 35.43,79.12 79.12,79.12 43.68,0 79.12,-35.43 79.12,-79.12 0,-43.68 -35.43,-79.12 -79.12,-79.12l0 0zm0 142.42c-34.95,0 -63.29,-28.35 -63.29,-63.3 0,-34.95 28.34,-63.3 63.29,-63.3 34.95,0 63.3,28.35 63.3,63.3 0,34.95 -28.35,63.3 -63.3,63.3l0 0zm7.91 -63.85l0 -39c0,-4.37 -3.54,-7.91 -7.91,-7.91 -4.36,0 -7.91,3.54 -7.91,7.91l0 40.42c-0.04,0.31 -0.06,0.64 -0.06,0.94 0,1.3 0.32,2.58 0.93,3.72l11.87 20.58c1.45,2.34 4,3.76 6.75,3.76 4.38,0 7.94,-3.55 7.94,-7.94 0,-1.3 -0.32,-2.58 -0.93,-3.73l-10.68 -18.74z"/>
 </g>
</svg>
