<?xml version="1.0" encoding="UTF-8"?>
<!DOCTYPE svg PUBLIC "-//W3C//DTD SVG 1.1//EN" "http://www.w3.org/Graphics/SVG/1.1/DTD/svg11.dtd">
<!-- Creator: CorelDRAW 2021.5 -->
<svg xmlns="http://www.w3.org/2000/svg" xml:space="preserve" width="2.032mm" height="2.032mm" version="1.1" style="shape-rendering:geometricPrecision; text-rendering:geometricPrecision; image-rendering:optimizeQuality; fill-rule:evenodd; clip-rule:evenodd"
viewBox="0 0 189.88 189.88"
 xmlns:xlink="http://www.w3.org/1999/xlink"
 xmlns:xodm="http://www.corel.com/coreldraw/odm/2003">
 <defs>
  <style type="text/css">
   <![CDATA[
    .fil0 {fill:none}
    .fil1 {fill:url(#id0);fill-rule:nonzero}
   ]]>
  </style>
  <linearGradient id="id0" gradientUnits="userSpaceOnUse" x1="94.93" y1="30.79" x2="94.93" y2="158.92">
   <stop offset="0" style="stop-opacity:1; stop-color:#6860CC"/>
   <stop offset="1" style="stop-opacity:1; stop-color:#857BFB"/>
  </linearGradient>
 </defs>
 <g id="Слой_x0020_1">
  <metadata id="CorelCorpID_0Corel-Layer"/>
  <polygon class="fil0" points="-0,0 189.88,0 189.88,189.88 -0,189.88 "/>
  <path class="fil1" d="M151.87 134.5c2.93,-4.79 4.48,-10.32 4.48,-15.94 0,-16.9 -13.71,-30.61 -30.6,-30.61 -16.9,0 -30.61,13.71 -30.61,30.61 0,16.9 13.71,30.61 30.61,30.61 0,0 0,0 0,0 5.62,-0.03 11.14,-1.58 15.94,-4.49l12.25 12.32c1.34,1.35 3.17,2.11 5.06,2.11 2.9,0 5.5,-1.76 6.61,-4.43 0.36,-0.87 0.54,-1.8 0.54,-2.74 0,-1.9 -0.76,-3.72 -2.1,-5.06l-12.18 -12.39zm-14.24 -4.06c-3.13,2.99 -7.3,4.66 -11.63,4.66 -4.34,0 -8.5,-1.67 -11.64,-4.66 -3.06,-3.09 -4.79,-7.28 -4.79,-11.64 0,-4.35 1.73,-8.54 4.79,-11.63 3.08,-3.09 7.27,-4.82 11.63,-4.82 9.08,0 16.45,7.36 16.45,16.45 0,0 0,0.01 0,0.01 0,4.36 -1.73,8.55 -4.8,11.64l0 0zm7.12 -99.66l-99.66 0c-11.79,0 -21.36,9.56 -21.36,21.35l0 64.07c0,11.78 9.57,21.35 21.36,21.35l28.47 0c3.93,0 7.12,-3.19 7.12,-7.12 0,-3.93 -3.19,-7.12 -7.12,-7.12l-28.47 0c-3.93,0 -7.12,-3.19 -7.12,-7.12l0 -42.7 113.9 0 0 7.11c0,3.93 3.19,7.12 7.12,7.12 3.93,0 7.12,-3.19 7.12,-7.12l-0.01 -28.47c0.01,-11.79 -9.56,-21.35 -21.35,-21.35zm7.12 28.47l-113.9 0 0 -7.12c0,-3.92 3.19,-7.12 7.12,-7.12l99.66 0c3.93,0 7.12,3.2 7.12,7.12l0 7.12zm-71.18 28.47l-21.36 0c-3.92,0 -7.11,3.2 -7.11,7.12 0,3.93 3.19,7.12 7.12,7.12l21.35 0c3.93,0 7.12,-3.19 7.12,-7.12 0,-3.92 -3.19,-7.12 -7.12,-7.12l0 0z"/>
 </g>
</svg>
