<?xml version="1.0" encoding="UTF-8"?>
<!DOCTYPE svg PUBLIC "-//W3C//DTD SVG 1.1//EN" "http://www.w3.org/Graphics/SVG/1.1/DTD/svg11.dtd">
<!-- Creator: CorelDRAW 2021.5 -->
<svg xmlns="http://www.w3.org/2000/svg" xml:space="preserve" width="2.032mm" height="2.032mm" version="1.1" style="shape-rendering:geometricPrecision; text-rendering:geometricPrecision; image-rendering:optimizeQuality; fill-rule:evenodd; clip-rule:evenodd"
viewBox="0 0 189.88 189.88"
 xmlns:xlink="http://www.w3.org/1999/xlink"
 xmlns:xodm="http://www.corel.com/coreldraw/odm/2003">
 <defs>
  <style type="text/css">
   <![CDATA[
    .fil0 {fill:none}
    .fil1 {fill:url(#id0);fill-rule:nonzero}
   ]]>
  </style>
  <linearGradient id="id0" gradientUnits="userSpaceOnUse" x1="94.93" y1="23.74" x2="94.93" y2="166.14">
   <stop offset="0" style="stop-opacity:1; stop-color:#6860CC"/>
   <stop offset="1" style="stop-opacity:1; stop-color:#857BFB"/>
  </linearGradient>
 </defs>
 <g id="Слой_x0020_1">
  <metadata id="CorelCorpID_0Corel-Layer"/>
  <polygon class="fil0" points="-0,0 189.88,0 189.88,189.88 -0,189.88 "/>
  <path class="fil1" d="M116.3 123.42l-42.72 0c-3.93,0 -7.12,3.19 -7.12,7.12 0,3.93 3.19,7.12 7.12,7.12l42.72 0c3.93,0 7.12,-3.19 7.12,-7.12 0,-3.93 -3.19,-7.12 -7.12,-7.12l0 0zm-42.72 -42.72l7.12 0c3.93,0 7.12,-3.19 7.12,-7.12 0,-3.93 -3.19,-7.12 -7.12,-7.12l-7.12 0c-3.93,0 -7.12,3.19 -7.12,7.12 0,3.93 3.19,7.12 7.12,7.12l0 0zm42.72 14.24l-42.72 0c-3.93,0 -7.12,3.19 -7.12,7.12 0,3.93 3.19,7.12 7.12,7.12l42.72 0c3.93,0 7.12,-3.19 7.12,-7.12 0,-3.93 -3.19,-7.12 -7.12,-7.12zm33.53 23.43c-0.67,-0.65 -1.47,-1.16 -2.35,-1.5 -0.85,-0.38 -1.78,-0.59 -2.7,-0.59 -0.93,0 -1.86,0.21 -2.71,0.59 -0.87,0.34 -1.67,0.84 -2.35,1.5 -0.63,0.69 -1.13,1.49 -1.5,2.35 -0.36,0.88 -0.55,1.81 -0.55,2.77 0,1.87 0.74,3.67 2.06,5 1.33,1.32 3.13,2.07 5.01,2.07 0.02,0 0.03,0 0.05,0 0.93,-0.02 1.85,-0.21 2.7,-0.57 0.86,-0.36 1.66,-0.87 2.35,-1.5 1.31,-1.34 2.05,-3.13 2.05,-5 0,-0.95 -0.19,-1.89 -0.55,-2.77 -0.36,-0.86 -0.87,-1.65 -1.5,-2.35l-0.01 0zm2.07 -45.21c-0.07,-0.65 -0.22,-1.31 -0.43,-1.92l0 -0.64c-0.35,-0.73 -0.8,-1.4 -1.35,-1.99l-42.72 -42.72c-0.59,-0.55 -1.26,-1.01 -1.99,-1.35 -0.11,-0.01 -0.21,-0.02 -0.33,-0.02 -0.1,0 -0.21,0.01 -0.32,0.02 -0.72,-0.41 -1.52,-0.68 -2.35,-0.78l-43.08 0c-11.79,0 -21.36,9.57 -21.36,21.36l0 99.68c0,11.79 9.57,21.36 21.36,21.36l56.96 0c3.93,0 7.12,-3.19 7.12,-7.12 0,-3.93 -3.19,-7.12 -7.12,-7.12l-56.96 0c-3.93,0 -7.12,-3.19 -7.12,-7.12l0 -99.68c0,-3.92 3.19,-7.12 7.12,-7.12l35.6 0 0 21.36c0,11.8 9.57,21.36 21.36,21.36l21.36 0 0 14.24c0,3.93 3.19,7.12 7.12,7.12 3.92,0 7.12,-3.19 7.12,-7.12l0 -21.78zm-35.6 -6.7c-3.93,0 -7.12,-3.19 -7.12,-7.12l0 -11.32 18.44 18.44 -11.32 0zm28.48 71.2c-3.93,0 -7.12,3.19 -7.12,7.12l0 14.24c0,3.93 3.19,7.12 7.12,7.12 3.92,0 7.12,-3.19 7.12,-7.12l0 -14.24c0,-3.93 -3.2,-7.12 -7.12,-7.12l0 0z"/>
 </g>
</svg>
