<?xml version="1.0" encoding="UTF-8"?>
<!DOCTYPE svg PUBLIC "-//W3C//DTD SVG 1.1//EN" "http://www.w3.org/Graphics/SVG/1.1/DTD/svg11.dtd">
<!-- Creator: CorelDRAW 2021.5 -->
<svg xmlns="http://www.w3.org/2000/svg" xml:space="preserve" width="2.032mm" height="2.032mm" version="1.1" style="shape-rendering:geometricPrecision; text-rendering:geometricPrecision; image-rendering:optimizeQuality; fill-rule:evenodd; clip-rule:evenodd"
viewBox="0 0 189.88 189.88"
 xmlns:xlink="http://www.w3.org/1999/xlink"
 xmlns:xodm="http://www.corel.com/coreldraw/odm/2003">
 <defs>
  <style type="text/css">
   <![CDATA[
    .fil0 {fill:none}
    .fil1 {fill:url(#id0);fill-rule:nonzero}
   ]]>
  </style>
  <linearGradient id="id0" gradientUnits="userSpaceOnUse" x1="94.88" y1="36.73" x2="94.88" y2="153.13">
   <stop offset="0" style="stop-opacity:1; stop-color:#6860CC"/>
   <stop offset="1" style="stop-opacity:1; stop-color:#857BFB"/>
  </linearGradient>
 </defs>
 <g id="Слой_x0020_1">
  <metadata id="CorelCorpID_0Corel-Layer"/>
  <polygon class="fil0" points="-0,0 189.88,0 189.88,189.88 -0,189.88 "/>
  <path class="fil1" d="M164.59 84.4c-1.22,-1.51 -3.07,-2.39 -5.02,-2.39 -0.01,0 -0.02,0 -0.03,0l-12.93 0 0 -6.48c0,-10.71 -8.69,-19.4 -19.4,-19.4l-40.62 0 -2.07 -6.47c-2.74,-7.75 -10.06,-12.93 -18.29,-12.93 -0.03,0 -0.06,0 -0.07,0l-23.03 0c-10.71,0 -19.4,8.69 -19.4,19.4l0 77.6c0,10.72 8.69,19.4 19.41,19.4l93.12 0.01c9.07,-0.03 16.91,-6.34 18.88,-15.2l10.86 -48.05c0.09,-0.43 0.13,-0.86 0.13,-1.29 0,-1.54 -0.54,-3.04 -1.55,-4.2l0 0zm-112.59 50.77c-0.66,2.94 -3.29,5.04 -6.31,5.04 -0.06,0 -0.11,0 -0.16,0l-2.4 0c-3.56,0 -6.46,-2.9 -6.46,-6.47l-0.01 -77.6c0.01,-3.57 2.91,-6.47 6.48,-6.47l23.02 0c0.11,-0.01 0.22,-0.01 0.34,-0.01 2.78,0 5.24,1.78 6.13,4.41l3.49 10.61c0.85,2.52 3.17,4.27 5.82,4.4l45.27 0c3.57,-0.01 6.47,2.89 6.47,6.46l0 6.48 -64.67 0c-0.05,-0.01 -0.1,-0.01 -0.16,-0.01 -3.02,0 -5.64,2.1 -6.31,5.05l-10.54 48.12 0 0zm90.54 0c-0.66,2.94 -3.28,5.04 -6.31,5.04 -0.05,0 -0.11,0 -0.16,0l-72.17 0c0.34,-0.71 0.57,-1.48 0.71,-2.26l9.57 -43 77.61 0 -9.25 40.23 0 0z"/>
 </g>
</svg>
