<?xml version="1.0" encoding="UTF-8"?>
<!DOCTYPE svg PUBLIC "-//W3C//DTD SVG 1.1//EN" "http://www.w3.org/Graphics/SVG/1.1/DTD/svg11.dtd">
<!-- Creator: CorelDRAW 2021.5 -->
<svg xmlns="http://www.w3.org/2000/svg" xml:space="preserve" width="2.032mm" height="2.032mm" version="1.1" style="shape-rendering:geometricPrecision; text-rendering:geometricPrecision; image-rendering:optimizeQuality; fill-rule:evenodd; clip-rule:evenodd"
viewBox="0 0 189.88 189.88"
 xmlns:xlink="http://www.w3.org/1999/xlink"
 xmlns:xodm="http://www.corel.com/coreldraw/odm/2003">
 <defs>
  <style type="text/css">
   <![CDATA[
    .fil0 {fill:none}
    .fil1 {fill:white;fill-rule:nonzero}
   ]]>
  </style>
 </defs>
 <g id="Слой_x0020_1">
  <metadata id="CorelCorpID_0Corel-Layer"/>
  <polygon class="fil0" points="-0,0 189.88,0 189.88,189.88 -0,189.88 "/>
  <path class="fil1" d="M122.37 33.56c2.23,-2.22 4.89,-3.98 7.78,-5.19 2.91,-1.21 6.03,-1.84 9.19,-1.84 6.61,0 12.6,2.69 16.94,7.03l0.03 0c4.35,4.35 7.03,10.34 7.03,16.97 0,3.17 -0.64,6.29 -1.84,9.19 -1.2,2.89 -2.95,5.55 -5.19,7.77l-84.61 84.62c-0.94,0.93 -2.1,1.51 -3.32,1.74l-33.95 9.25c-3.33,0.91 -6.77,-1.06 -7.67,-4.38 -0.3,-1.11 -0.28,-2.24 0,-3.28l9.4 -34.47c0.3,-1.09 0.87,-2.04 1.62,-2.78l84.59 -84.64zm12.59 6.37c-1.36,0.56 -2.64,1.41 -3.72,2.49l-83.47 83.47 -6.08 22.29 22.29 -6.07 83.48 -83.47c1.08,-1.08 1.92,-2.35 2.49,-3.72 0.56,-1.35 0.86,-2.85 0.86,-4.39 0,-3.16 -1.29,-6.03 -3.35,-8.1 -2.07,-2.07 -4.93,-3.35 -8.11,-3.35 -1.54,0 -3.03,0.3 -4.38,0.86z"/>
 </g>
</svg>
