<?xml version="1.0" encoding="UTF-8"?>
<!DOCTYPE svg PUBLIC "-//W3C//DTD SVG 1.1//EN" "http://www.w3.org/Graphics/SVG/1.1/DTD/svg11.dtd">
<!-- Creator: CorelDRAW 2021.5 -->
<svg xmlns="http://www.w3.org/2000/svg" xml:space="preserve" width="2.032mm" height="2.032mm" version="1.1" style="shape-rendering:geometricPrecision; text-rendering:geometricPrecision; image-rendering:optimizeQuality; fill-rule:evenodd; clip-rule:evenodd"
viewBox="0 0 189.88 189.88"
 xmlns:xlink="http://www.w3.org/1999/xlink"
 xmlns:xodm="http://www.corel.com/coreldraw/odm/2003">
 <defs>
  <style type="text/css">
   <![CDATA[
    .fil0 {fill:none}
    .fil1 {fill:white;fill-rule:nonzero}
   ]]>
  </style>
 </defs>
 <g id="Слой_x0020_1">
  <metadata id="CorelCorpID_0Corel-Layer"/>
  <polygon class="fil0" points="-0,0 189.88,0 189.88,189.88 -0,189.88 "/>
  <path class="fil1" d="M20.42 92.12c0.07,-0.15 26.79,-53.6 74.53,-53.6 47.74,0 74.45,53.45 74.53,53.6 0.93,1.84 0.86,3.92 0,5.63 -0.07,0.16 -26.79,53.6 -74.53,53.6 -47.74,0 -74.45,-53.44 -74.53,-53.6 -0.93,-1.84 -0.86,-3.92 0,-5.63zm74.53 -41.06c-34.09,0 -56.03,33.79 -61.82,43.88 5.79,10.09 27.73,43.87 61.82,43.87 34.09,0 56.03,-33.78 61.82,-43.87 -5.79,-10.09 -27.73,-43.88 -61.82,-43.88zm0.47 56.43c3.27,-0.12 6.23,-1.5 8.41,-3.67 2.26,-2.27 3.66,-5.41 3.66,-8.88 0,-3.48 -1.4,-6.62 -3.66,-8.88 -2.26,-2.26 -5.41,-3.66 -8.88,-3.66 -3.47,0 -6.61,1.4 -8.88,3.66 -2.26,2.26 -3.65,5.41 -3.65,8.88 0,3.47 1.39,6.61 3.65,8.88 2.27,2.25 5.41,3.65 8.88,3.65l0.47 0.02zm17.24 5.18c-4.38,4.38 -10.41,7.15 -17.07,7.32l-0.84 0.03c-6.82,-0.06 -13.01,-2.86 -17.49,-7.34l-0.03 -0.03c-4.53,-4.53 -7.34,-10.8 -7.34,-17.7 0,-6.91 2.81,-13.17 7.34,-17.71l0.03 -0.03c4.53,-4.53 10.79,-7.34 17.7,-7.34 6.9,0 13.17,2.81 17.71,7.34l0.02 0.03c4.54,4.54 7.34,10.8 7.34,17.71 0,6.9 -2.8,13.17 -7.34,17.7l-0.02 0.03z"/>
 </g>
</svg>
