<?xml version="1.0" encoding="UTF-8"?>
<!DOCTYPE svg PUBLIC "-//W3C//DTD SVG 1.1//EN" "http://www.w3.org/Graphics/SVG/1.1/DTD/svg11.dtd">
<!-- Creator: CorelDRAW 2021.5 -->
<svg xmlns="http://www.w3.org/2000/svg" xml:space="preserve" width="2.032mm" height="2.032mm" version="1.1" style="shape-rendering:geometricPrecision; text-rendering:geometricPrecision; image-rendering:optimizeQuality; fill-rule:evenodd; clip-rule:evenodd"
viewBox="0 0 189.88 189.88"
 xmlns:xlink="http://www.w3.org/1999/xlink"
 xmlns:xodm="http://www.corel.com/coreldraw/odm/2003">
 <defs>
  <style type="text/css">
   <![CDATA[
    .fil0 {fill:none}
    .fil1 {fill:white;fill-rule:nonzero}
   ]]>
  </style>
 </defs>
 <g id="Слой_x0020_1">
  <metadata id="CorelCorpID_0Corel-Layer"/>
  <polygon class="fil0" points="-0,0 189.88,0 189.88,189.88 -0,189.88 "/>
  <path class="fil1" d="M94.94 159.67c17.87,0 34.05,-7.24 45.77,-18.96 11.71,-11.71 18.96,-27.89 18.96,-45.77 0,-17.88 -7.25,-34.06 -18.96,-45.77 -11.72,-11.72 -27.9,-18.96 -45.77,-18.96 -17.88,0 -34.06,7.24 -45.77,18.96 -11.72,11.71 -18.96,27.89 -18.96,45.77 0,17.88 7.24,34.06 18.96,45.77 11.71,11.72 27.89,18.96 45.77,18.96zm55.93 -8.78c-14.31,14.32 -34.1,23.16 -55.93,23.16 -21.85,0 -41.63,-8.85 -55.94,-23.16 -14.32,-14.32 -23.16,-34.1 -23.16,-55.94 0,-21.85 8.85,-41.63 23.16,-55.94 14.32,-14.31 34.1,-23.16 55.94,-23.16 21.84,0 41.63,8.86 55.93,23.16 14.32,14.32 23.17,34.1 23.17,55.94 0,21.85 -8.86,41.63 -23.17,55.94zm-55.93 -12.79c-3.97,0 -7.2,-3.22 -7.2,-7.2 0,-3.97 3.22,-7.19 7.2,-7.19l0.07 0c3.97,0 7.2,3.21 7.2,7.19 0,3.97 -3.22,7.2 -7.2,7.2l-0.07 0zm-14.16 -62.34c-1.32,3.74 -5.43,5.7 -9.17,4.38 -3.74,-1.33 -5.7,-5.43 -4.37,-9.17 2.02,-5.74 5.75,-10.54 10.49,-13.89l0.49 -0.33c4.68,-3.18 10.28,-4.99 16.14,-4.99 7.92,0 15.11,3.22 20.31,8.42l0.03 0.04c5.2,5.2 8.43,12.39 8.43,20.31l0 0.04c0,19.59 -26.34,28.32 -26.41,28.35 -3.74,1.3 -7.83,-0.67 -9.14,-4.41 -1.3,-3.74 0.68,-7.83 4.42,-9.14 0.05,-0.01 16.74,-5.62 16.74,-14.8l0 -0.04c0,-3.97 -1.6,-7.58 -4.2,-10.19 -2.6,-2.59 -6.2,-4.2 -10.19,-4.2 -2.94,0 -5.71,0.87 -8,2.39l-0.31 0.22c-2.38,1.69 -4.25,4.1 -5.27,7z"/>
 </g>
</svg>
