<?xml version="1.0" encoding="UTF-8"?>
<!DOCTYPE svg PUBLIC "-//W3C//DTD SVG 1.1//EN" "http://www.w3.org/Graphics/SVG/1.1/DTD/svg11.dtd">
<!-- Creator: CorelDRAW 2021.5 -->
<svg xmlns="http://www.w3.org/2000/svg" xml:space="preserve" width="2.032mm" height="2.032mm" version="1.1" style="shape-rendering:geometricPrecision; text-rendering:geometricPrecision; image-rendering:optimizeQuality; fill-rule:evenodd; clip-rule:evenodd"
viewBox="0 0 189.88 189.88"
 xmlns:xlink="http://www.w3.org/1999/xlink"
 xmlns:xodm="http://www.corel.com/coreldraw/odm/2003">
 <defs>
  <style type="text/css">
   <![CDATA[
    .fil0 {fill:none}
    .fil1 {fill:white;fill-rule:nonzero}
   ]]>
  </style>
 </defs>
 <g id="Слой_x0020_1">
  <metadata id="CorelCorpID_0Corel-Layer"/>
  <polygon class="fil0" points="-0,0 189.88,0 189.88,189.88 -0,189.88 "/>
  <path class="fil1" d="M95.43 108.14c3.44,-0.12 6.55,-1.58 8.85,-3.86 2.37,-2.38 3.84,-5.69 3.84,-9.33 0,-3.64 -1.47,-6.95 -3.85,-9.33 -2.38,-2.38 -5.68,-3.85 -9.33,-3.85 -3.65,0 -6.95,1.47 -9.33,3.85 -2.38,2.38 -3.85,5.69 -3.85,9.33 0,3.63 1.48,6.93 3.86,9.32l0.27 0.29c2.36,2.21 5.55,3.58 9.05,3.58l0.49 0.01zm18.13 5.45c-4.61,4.61 -10.94,7.52 -17.95,7.7l-0.88 0.03c-6.98,-0.06 -13.32,-2.84 -18.01,-7.34l-0.43 -0.39c-4.77,-4.77 -7.73,-11.36 -7.73,-18.64 0,-7.26 2.96,-13.85 7.73,-18.62l0.03 -0.03c4.77,-4.77 11.36,-7.72 18.62,-7.72 7.25,0 13.84,2.95 18.61,7.72l0.03 0.03c4.77,4.77 7.73,11.36 7.73,18.62 0,7.25 -2.96,13.85 -7.73,18.61l-0.03 0.03zm36.03 4.15l-0.12 0.47c-0.05,0.25 -0.07,0.55 -0.07,0.91 0,0.57 0.11,1.13 0.32,1.64l0.11 0.32c0.19,0.36 0.43,0.7 0.73,1.01l0.81 0.83c1.66,1.77 2.97,3.79 3.88,5.97 0.99,2.39 1.51,4.96 1.51,7.57 0,2.61 -0.52,5.18 -1.51,7.57 -0.98,2.35 -2.43,4.53 -4.29,6.39l-0.03 0.03c-1.86,1.86 -4.04,3.31 -6.39,4.28 -2.39,1 -4.97,1.52 -7.57,1.52 -2.61,0 -5.18,-0.53 -7.57,-1.52 -2.36,-0.97 -4.55,-2.43 -6.41,-4.3l-0.59 -0.57c-0.35,-0.29 -0.73,-0.52 -1.11,-0.68 -0.52,-0.19 -1.07,-0.3 -1.65,-0.3 -0.35,0 -0.65,0.03 -0.91,0.08 -0.24,0.05 -0.52,0.15 -0.83,0.28l-0.24 0.1c-0.7,0.34 -1.29,0.86 -1.71,1.5 -0.45,0.68 -0.72,1.5 -0.72,2.33l0.02 1.13c0,5.44 -2.21,10.38 -5.8,13.97 -3.55,3.57 -8.49,5.77 -13.97,5.78l0 0.02c-5.46,0 -10.41,-2.21 -13.98,-5.79 -3.58,-3.58 -5.79,-8.52 -5.79,-13.98l0 -0.8c-0.07,-0.74 -0.36,-1.46 -0.79,-2.06 -0.48,-0.67 -1.17,-1.21 -2,-1.51l-0.58 -0.24 -0.64 -0.2c-0.24,-0.05 -0.55,-0.07 -0.91,-0.07 -0.57,0 -1.13,0.11 -1.64,0.32l-0.32 0.12c-0.36,0.18 -0.7,0.42 -1,0.72l-0.84 0.82c-1.77,1.65 -3.79,2.96 -5.96,3.87 -2.4,0.99 -4.97,1.52 -7.58,1.52 -2.6,0 -5.18,-0.53 -7.57,-1.52 -2.35,-0.98 -4.53,-2.43 -6.39,-4.28l-0.03 -0.03c-1.84,-1.85 -3.29,-4.03 -4.27,-6.4 -1,-2.39 -1.53,-4.96 -1.53,-7.57 0,-2.6 0.53,-5.18 1.52,-7.57l0.18 -0.38c0.98,-2.22 2.37,-4.28 4.11,-6.02l0.56 -0.59c0.28,-0.33 0.51,-0.71 0.68,-1.13l0.14 -0.33c0.11,-0.39 0.18,-0.83 0.18,-1.31 0,-0.36 -0.03,-0.66 -0.08,-0.91 -0.05,-0.24 -0.14,-0.53 -0.28,-0.84l-0.1 -0.24c-0.34,-0.7 -0.86,-1.29 -1.49,-1.7 -0.7,-0.46 -1.51,-0.73 -2.35,-0.73l-1.11 0c-5.44,0.03 -10.37,-2.2 -13.95,-5.77l-0.03 0c-3.58,-3.58 -5.79,-8.53 -5.79,-13.99 0,-5.46 2.21,-10.41 5.79,-13.98 3.58,-3.58 8.52,-5.79 13.99,-5.79l0.79 0c0.74,-0.07 1.46,-0.36 2.07,-0.79 0.66,-0.48 1.21,-1.17 1.5,-2l0.24 -0.58 0.2 -0.64c0.05,-0.24 0.07,-0.55 0.07,-0.91 0,-0.57 -0.11,-1.13 -0.32,-1.64l-0.11 -0.32c-0.19,-0.36 -0.43,-0.69 -0.73,-1l-0.4 -0.38c-1.84,-1.84 -3.29,-4.03 -4.28,-6.42l-0.15 -0.4c-0.9,-2.29 -1.37,-4.73 -1.37,-7.18 0,-5.46 2.22,-10.41 5.8,-13.99 3.58,-3.58 8.52,-5.79 13.99,-5.79 2.58,0 5.15,0.52 7.55,1.51 2.41,0.99 4.61,2.45 6.44,4.28l0.57 0.57c0.33,0.28 0.72,0.51 1.13,0.68l0.33 0.14c0.39,0.11 0.83,0.18 1.32,0.18 0.35,0 0.65,-0.03 0.91,-0.07 0.24,-0.06 0.52,-0.15 0.83,-0.29 0.43,-0.19 0.88,-0.33 1.32,-0.42 0.46,-0.32 0.85,-0.71 1.16,-1.17 0.46,-0.69 0.72,-1.5 0.73,-2.35l-0.03 -1.11c0,-5.46 2.21,-10.41 5.79,-13.99 3.58,-3.58 8.52,-5.79 13.99,-5.79 5.44,0 10.37,2.21 13.95,5.79l0.03 0c3.58,3.58 5.79,8.53 5.79,13.99l0 0.59c-0.02,0.83 0.24,1.64 0.7,2.34 0.45,0.68 1.1,1.24 1.87,1.57l0.07 0.04c0.31,0.12 0.6,0.22 0.84,0.27 0.24,0.06 0.55,0.08 0.91,0.08 0.57,0 1.13,-0.11 1.64,-0.32l0.32 -0.12c0.36,-0.19 0.7,-0.43 1,-0.72l0.83 -0.82c1.77,-1.66 3.79,-2.97 5.98,-3.88 2.39,-1 4.97,-1.52 7.58,-1.52 5.46,0 10.41,2.21 13.99,5.79l0.41 0.45c3.34,3.54 5.38,8.31 5.38,13.53 0,2.64 -0.53,5.21 -1.52,7.61 -0.98,2.35 -2.43,4.54 -4.29,6.4l-0.56 0.58c-0.28,0.33 -0.51,0.72 -0.68,1.14l-0.14 0.32c-0.11,0.39 -0.18,0.84 -0.18,1.32 0,0.35 0.03,0.65 0.08,0.91 0.05,0.24 0.14,0.52 0.28,0.83 0.19,0.43 0.33,0.88 0.42,1.33 0.32,0.46 0.72,0.85 1.17,1.15 0.7,0.47 1.52,0.73 2.35,0.73l1.1 0c5.47,-0.03 10.41,2.19 13.99,5.77l0.41 0.46c3.34,3.54 5.38,8.31 5.38,13.53 0,5.46 -2.21,10.41 -5.79,13.98 -3.58,3.58 -8.52,5.79 -13.99,5.79l-0.57 -0.02c-0.85,0 -1.66,0.26 -2.35,0.72 -0.61,0.4 -1.1,0.95 -1.44,1.61l-0.32 0.71zm-13 -2.21c0.2,-0.96 0.5,-1.93 0.9,-2.9l0.19 -0.5c1.37,-3.21 3.63,-5.85 6.41,-7.69 2.76,-1.82 6.07,-2.87 9.55,-2.89l0.64 -0.03c1.82,0 3.48,-0.74 4.66,-1.93 1.2,-1.19 1.93,-2.84 1.93,-4.65 0,-1.7 -0.64,-3.26 -1.68,-4.42l-0.25 -0.24c-1.19,-1.19 -2.84,-1.93 -4.66,-1.93l-1.12 -0.02c-3.51,-0.02 -6.82,-1.06 -9.6,-2.89 -2.78,-1.85 -5.04,-4.49 -6.41,-7.7 -0.21,-0.52 -0.36,-1.07 -0.45,-1.64 -0.25,-0.73 -0.47,-1.49 -0.63,-2.27 -0.26,-1.22 -0.39,-2.42 -0.39,-3.58 0,-2 0.36,-4.01 1.07,-5.93l0.22 -0.64c0.76,-1.88 1.86,-3.63 3.26,-5.17 0.11,-0.11 0.8,-0.92 0.9,-0.92 0.61,-0.61 1.08,-1.34 1.42,-2.14 0.32,-0.78 0.5,-1.64 0.5,-2.53 0,-1.73 -0.64,-3.28 -1.68,-4.45l-0.25 -0.23c-1.19,-1.2 -2.84,-1.93 -4.66,-1.93 -0.9,0 -1.76,0.17 -2.53,0.5 -0.69,0.28 -1.34,0.69 -1.89,1.19 -0.14,0.14 -0.58,0.63 -0.71,0.69 -1.44,1.41 -3.12,2.55 -4.95,3.39l-0.68 0.32c-2.07,0.84 -4.31,1.3 -6.58,1.3 -1.16,0 -2.36,-0.14 -3.59,-0.39 -1.21,-0.25 -2.38,-0.63 -3.46,-1.1 -3.17,-1.38 -5.79,-3.63 -7.62,-6.39 -1.84,-2.77 -2.88,-6.09 -2.9,-9.6l-0.02 -0.59c0,-1.82 -0.74,-3.48 -1.93,-4.66 -1.18,-1.2 -2.83,-1.93 -4.65,-1.93 -1.82,0 -3.48,0.74 -4.66,1.93 -1.2,1.19 -1.93,2.84 -1.93,4.66l-0.02 1.15c-0.02,3.49 -1.06,6.8 -2.9,9.57 -1.84,2.78 -4.49,5.05 -7.7,6.41 -0.51,0.21 -1.07,0.36 -1.64,0.45 -0.73,0.25 -1.49,0.47 -2.27,0.64 -1.22,0.25 -2.43,0.38 -3.58,0.38 -2,0 -4.01,-0.36 -5.93,-1.07l-0.65 -0.22c-1.87,-0.77 -3.62,-1.87 -5.16,-3.27l-0.93 -0.87c-0.63,-0.64 -1.35,-1.12 -2.14,-1.45 -0.76,-0.32 -1.62,-0.49 -2.52,-0.49 -1.82,0 -3.48,0.74 -4.67,1.93 -1.19,1.19 -1.92,2.84 -1.92,4.66 0,0.82 0.13,1.62 0.39,2.33l0.09 0.21c0.32,0.78 0.81,1.5 1.44,2.14l0.43 0.45c1.4,1.44 2.55,3.12 3.38,4.95l0.33 0.68c0.84,2.07 1.3,4.31 1.3,6.58 0,1.16 -0.14,2.36 -0.39,3.59 -0.21,1.04 -0.53,2.06 -0.93,3.04l-0.01 0.04c-1.23,3.35 -3.45,6.18 -6.25,8.19 -2.59,1.84 -5.71,2.99 -9.03,3.21l-1.46 0.06c-1.82,0 -3.48,0.74 -4.66,1.93 -1.2,1.19 -1.93,2.84 -1.93,4.65 0,1.82 0.74,3.47 1.93,4.66 1.18,1.2 2.83,1.93 4.65,1.93l1.13 0.02c3.51,0.02 6.82,1.06 9.6,2.89 2.66,1.77 4.85,4.28 6.24,7.31l0.14 0.31c0.48,1.08 0.85,2.24 1.1,3.47 0.26,1.22 0.39,2.43 0.39,3.59 0,1.99 -0.36,4.01 -1.07,5.92l-0.22 0.65c-0.76,1.87 -1.86,3.63 -3.26,5.16 -0.11,0.12 -0.8,0.93 -0.9,0.93 -0.56,0.55 -1.01,1.2 -1.33,1.9l-0.09 0.24c-0.32,0.78 -0.49,1.64 -0.49,2.52 0,0.9 0.17,1.76 0.49,2.52 0.32,0.81 0.8,1.53 1.42,2.15l0.03 0.03c0.6,0.6 1.34,1.08 2.14,1.42 0.77,0.32 1.63,0.49 2.52,0.49 0.9,0 1.76,-0.17 2.52,-0.49 0.7,-0.29 1.35,-0.69 1.9,-1.19 0.13,-0.14 0.57,-0.63 0.7,-0.68 1.44,-1.41 3.12,-2.56 4.95,-3.4l0.68 -0.32c2.07,-0.84 4.31,-1.29 6.58,-1.29 1.16,0 2.36,0.13 3.58,0.38 1.05,0.21 2.07,0.53 3.05,0.93l0.04 0.02c3.35,1.22 6.18,3.45 8.19,6.25 1.84,2.58 2.99,5.7 3.21,9.02l0.06 1.47c0,1.81 0.74,3.47 1.92,4.65 1.2,1.2 2.84,1.93 4.66,1.93l0 0.03c1.8,0 3.45,-0.75 4.65,-1.96l0.03 0c1.18,-1.17 1.91,-2.81 1.91,-4.65l0.03 -1.15c0.01,-3.49 1.06,-6.8 2.89,-9.57 1.77,-2.67 4.27,-4.86 7.31,-6.24l0.31 -0.15c1.07,-0.48 2.24,-0.85 3.47,-1.1 1.22,-0.25 2.43,-0.39 3.58,-0.39 2.27,0 4.51,0.45 6.59,1.3l0 0.02c1.89,0.78 3.63,1.87 5.15,3.23 0.11,0.11 0.93,0.81 0.93,0.91 0.6,0.61 1.34,1.09 2.14,1.42 0.77,0.33 1.63,0.5 2.52,0.5 0.9,0 1.76,-0.17 2.52,-0.5 0.81,-0.33 1.54,-0.81 2.15,-1.42l0.02 -0.03c0.61,-0.6 1.09,-1.34 1.43,-2.14 0.32,-0.77 0.49,-1.63 0.49,-2.52 0,-0.9 -0.17,-1.76 -0.49,-2.52 -0.29,-0.7 -0.69,-1.35 -1.19,-1.9 -0.14,-0.13 -0.63,-0.57 -0.69,-0.69 -1.4,-1.45 -2.55,-3.13 -3.39,-4.96l-0.32 -0.68c-0.84,-2.07 -1.3,-4.31 -1.3,-6.58 0,-1.16 0.14,-2.36 0.39,-3.58z"/>
 </g>
</svg>
