<?xml version="1.0" encoding="UTF-8"?>
<!DOCTYPE svg PUBLIC "-//W3C//DTD SVG 1.1//EN" "http://www.w3.org/Graphics/SVG/1.1/DTD/svg11.dtd">
<!-- Creator: CorelDRAW 2021.5 -->
<svg xmlns="http://www.w3.org/2000/svg" xml:space="preserve" width="2.032mm" height="2.032mm" version="1.1" style="shape-rendering:geometricPrecision; text-rendering:geometricPrecision; image-rendering:optimizeQuality; fill-rule:evenodd; clip-rule:evenodd"
viewBox="0 0 189.88 189.88"
 xmlns:xlink="http://www.w3.org/1999/xlink"
 xmlns:xodm="http://www.corel.com/coreldraw/odm/2003">
 <defs>
  <style type="text/css">
   <![CDATA[
    .fil0 {fill:none}
    .fil1 {fill:white;fill-rule:nonzero}
   ]]>
  </style>
 </defs>
 <g id="Слой_x0020_1">
  <metadata id="CorelCorpID_0Corel-Layer"/>
  <polygon class="fil0" points="-0,0 189.88,0 189.88,189.88 -0,189.88 "/>
  <path class="fil1" d="M94.94 140.26c0.08,-0.01 0.18,0 0.26,0 3.58,0 6.48,-2.91 6.48,-6.48 0,-3.58 -2.91,-6.48 -6.48,-6.48 -0.08,0 -0.18,0.01 -0.26,0.01 -3.47,0.14 -6.21,3 -6.21,6.48 0,3.48 2.75,6.34 6.21,6.48l0 0.01zm32.37 0c3.57,-0.01 6.48,-2.91 6.48,-6.48 0,-3.57 -2.91,-6.47 -6.48,-6.47 -3.58,0 -6.48,2.9 -6.48,6.47 0,3.58 2.9,6.48 6.48,6.48l0 0.01zm0 -25.89c3.57,-0.01 6.48,-2.91 6.48,-6.48 0,-3.57 -2.91,-6.47 -6.48,-6.47 -3.58,0 -6.48,2.9 -6.48,6.47 0,3.58 2.9,6.48 6.48,6.48l0 0.01zm-32.37 0c3.58,-0.01 6.48,-2.91 6.48,-6.48 0,-3.57 -2.9,-6.47 -6.48,-6.47 -3.57,0 -6.47,2.9 -6.47,6.47 0,3.58 2.9,6.48 6.47,6.48l0 0.01zm45.31 -77.68l-6.47 0 0 -6.47c0,-3.58 -2.91,-6.48 -6.48,-6.48 -3.58,0 -6.48,2.9 -6.48,6.48l0 6.47 -51.79 0 0 -6.47c0.01,-3.58 -2.89,-6.48 -6.47,-6.48 -3.57,0 -6.48,2.9 -6.48,6.48l0 6.47 -6.48 0c-10.72,0 -19.42,8.7 -19.42,19.42l0 90.62c0,10.72 8.7,19.42 19.42,19.42l90.62 0c10.73,0 19.43,-8.7 19.43,-19.42l-0.01 -90.62c0.01,-10.72 -8.69,-19.42 -19.42,-19.42zm6.48 110.04c0,0 0,0.01 0,0.01 0,3.57 -2.9,6.47 -6.47,6.47 0,0 -0.01,0 -0.01,0l-90.62 0c-3.57,0 -6.48,-2.91 -6.48,-6.48l0 -58.25 103.57 0 0 58.25zm0 -71.2l-103.57 0 0 -19.42c0,-3.57 2.91,-6.48 6.48,-6.48l6.48 0 0 6.48c0,3.58 2.91,6.48 6.48,6.48 3.58,0 6.48,-2.9 6.48,-6.48l0 -6.48 51.78 0 0 6.48c0,3.58 2.9,6.48 6.48,6.48 3.57,0 6.48,-2.9 6.48,-6.48l0 -6.48 6.47 0c3.58,0 6.48,2.91 6.48,6.48l0 19.42 0 0zm-84.14 38.84c3.58,-0.01 6.48,-2.91 6.48,-6.48 0,-3.57 -2.9,-6.47 -6.48,-6.47 -3.57,0 -6.48,2.9 -6.48,6.47 0,3.58 2.91,6.48 6.48,6.48l0 0.01zm0 25.89c0.08,-0.01 0.18,0 0.26,0 3.58,0 6.48,-2.91 6.48,-6.48 0,-3.58 -2.9,-6.48 -6.48,-6.48 -0.08,0 -0.18,0.01 -0.26,0.01 -3.48,0.14 -6.22,3 -6.22,6.48 0,3.48 2.75,6.34 6.22,6.48l0 0.01z"/>
 </g>
</svg>
