<?xml version="1.0" encoding="UTF-8"?>
<!DOCTYPE svg PUBLIC "-//W3C//DTD SVG 1.1//EN" "http://www.w3.org/Graphics/SVG/1.1/DTD/svg11.dtd">
<!-- Creator: CorelDRAW 2021.5 -->
<svg xmlns="http://www.w3.org/2000/svg" xml:space="preserve" width="2.032mm" height="2.032mm" version="1.1" style="shape-rendering:geometricPrecision; text-rendering:geometricPrecision; image-rendering:optimizeQuality; fill-rule:evenodd; clip-rule:evenodd"
viewBox="0 0 43.65 43.65"
 xmlns:xlink="http://www.w3.org/1999/xlink"
 xmlns:xodm="http://www.corel.com/coreldraw/odm/2003">
 <defs>
  <style type="text/css">
   <![CDATA[
    .fil0 {fill:none}
    .fil1 {fill:white;fill-rule:nonzero}
   ]]>
  </style>
 </defs>
 <g id="Слой_x0020_1">
  <metadata id="CorelCorpID_0Corel-Layer"/>
  <g id="_2336319548432">
   <polygon class="fil0" points="-0,0 43.65,0 43.65,43.65 -0,43.65 "/>
   <path class="fil1" d="M30.49 33.32l-5.6 -9.7 11.2 0c-0.5,3.84 -2.52,7.33 -5.6,9.7l0 0zm-8.73 2.96c-7.94,-0.06 -14.36,-6.51 -14.36,-14.45 0,-7.24 5.36,-13.37 12.55,-14.33l0 14.33c0,0.2 0.06,0.44 0.12,0.64l0 0.26 7.24 12.43c-1.76,0.76 -3.63,1.15 -5.54,1.15l0 0 0 -0.03zm1.82 -28.79c6.54,0.82 11.7,5.98 12.52,12.52l-12.52 0 0 -12.52zm-1.82 -3.75c0,0 -0.03,0 -0.03,0 -9.97,0 -18.09,8.09 -18.09,18.09 0,9.97 8.09,18.09 18.09,18.09 3.14,0 6.22,-0.82 8.94,-2.37l0.2 0c5.66,-3.22 9.15,-9.21 9.15,-15.71 0,-9.97 -8.09,-18.09 -18.09,-18.09 -0.06,0 -0.12,0 -0.18,0l0 0 0 -0z"/>
  </g>
 </g>
</svg>
