<?xml version="1.0" encoding="UTF-8"?>
<!DOCTYPE svg PUBLIC "-//W3C//DTD SVG 1.1//EN" "http://www.w3.org/Graphics/SVG/1.1/DTD/svg11.dtd">
<!-- Creator: CorelDRAW 2021.5 -->
<svg xmlns="http://www.w3.org/2000/svg" xml:space="preserve" width="2.032mm" height="2.032mm" version="1.1" style="shape-rendering:geometricPrecision; text-rendering:geometricPrecision; image-rendering:optimizeQuality; fill-rule:evenodd; clip-rule:evenodd"
viewBox="0 0 189.88 189.88"
 xmlns:xlink="http://www.w3.org/1999/xlink"
 xmlns:xodm="http://www.corel.com/coreldraw/odm/2003">
 <defs>
  <style type="text/css">
   <![CDATA[
    .fil0 {fill:none}
    .fil1 {fill:white;fill-rule:nonzero}
   ]]>
  </style>
 </defs>
 <g id="Слой_x0020_1">
  <metadata id="CorelCorpID_0Corel-Layer"/>
  <polygon class="fil0" points="-0,0 189.88,0 189.88,189.88 -0,189.88 "/>
  <path class="fil1" d="M95.05 87.03c-4.36,0 -7.9,3.53 -7.9,7.9l0 23.71c0,4.35 3.53,7.9 7.9,7.9 4.36,0 7.9,-3.54 7.9,-7.9l0 -23.71c0,-4.36 -3.53,-7.9 -7.9,-7.9zm0 -23.7c-4.36,-0.01 -7.9,3.53 -7.9,7.9 0,4.36 3.53,7.9 7.9,7.9 4.36,0 7.9,-3.53 7.9,-7.9 0,-4.36 -3.53,-7.91 -7.9,-7.91l0 0.01zm0 -47.4c-43.62,0 -79,35.38 -79,79 0,0.09 0,0.2 0,0.3 0,18.13 6.33,35.73 17.86,49.71l-15.8 15.8c-1.47,1.48 -2.28,3.47 -2.28,5.54 0,1.06 0.21,2.09 0.62,3.06 1.29,2.79 4.09,4.59 7.18,4.59 0.1,0 0.22,0 0.33,0l71.1 0c43.62,-0.01 79,-35.39 79,-79.01 0,-43.62 -35.38,-79 -79,-79zm0 142.2l-52.07 0 7.35 -7.34c1.5,-1.49 2.36,-3.5 2.37,-5.62 -0.03,-2.08 -0.89,-4.07 -2.37,-5.53 -11.87,-11.84 -18.54,-27.95 -18.54,-44.71 0,-34.89 28.3,-63.2 63.2,-63.2 34.89,0 63.2,28.3 63.2,63.2 0,34.88 -28.27,63.18 -63.15,63.2l0 0z"/>
 </g>
</svg>
