<?xml version="1.0" encoding="UTF-8"?>
<!DOCTYPE svg PUBLIC "-//W3C//DTD SVG 1.1//EN" "http://www.w3.org/Graphics/SVG/1.1/DTD/svg11.dtd">
<!-- Creator: CorelDRAW 2021.5 -->
<svg xmlns="http://www.w3.org/2000/svg" xml:space="preserve" width="2.032mm" height="2.032mm" version="1.1" style="shape-rendering:geometricPrecision; text-rendering:geometricPrecision; image-rendering:optimizeQuality; fill-rule:evenodd; clip-rule:evenodd"
viewBox="0 0 189.88 189.88"
 xmlns:xlink="http://www.w3.org/1999/xlink"
 xmlns:xodm="http://www.corel.com/coreldraw/odm/2003">
 <defs>
  <style type="text/css">
   <![CDATA[
    .fil0 {fill:none}
    .fil1 {fill:white;fill-rule:nonzero}
   ]]>
  </style>
 </defs>
 <g id="Слой_x0020_1">
  <metadata id="CorelCorpID_0Corel-Layer"/>
  <polygon class="fil0" points="-0,0 189.88,0 189.88,189.88 -0,189.88 "/>
  <path class="fil1" d="M160.59 94.94c3.54,-3.9 5.52,-8.97 5.55,-14.24 0,-11.79 -9.57,-21.36 -21.36,-21.36l-36.89 0c0.81,-2.28 1.22,-4.69 1.22,-7.12 0,-11.77 -9.52,-21.33 -21.3,-21.36l-42.73 0c-11.79,0 -21.36,9.57 -21.36,21.36 0.04,5.27 2.02,10.34 5.56,14.24 -3.5,3.92 -5.45,8.99 -5.45,14.24 0,5.25 1.94,10.33 5.45,14.24 -3.5,3.92 -5.45,8.99 -5.45,14.24 0,5.25 1.94,10.33 5.45,14.24 -3.54,3.9 -5.52,8.97 -5.56,14.24 0,11.8 9.57,21.37 21.36,21.37l99.69 0c11.75,-0.07 21.25,-9.62 21.25,-21.37 0,-5.25 -1.94,-10.33 -5.44,-14.24 3.49,-3.91 5.44,-8.99 5.44,-14.24 0,-5.25 -1.94,-10.33 -5.44,-14.24l0 0zm-72.78 49.85l-42.72 0c-3.92,-0.01 -7.12,-3.2 -7.12,-7.13 0,-3.92 3.2,-7.12 7.12,-7.12l42.72 0.01c3.94,-0.01 7.13,3.19 7.13,7.11 0,3.93 -3.19,7.12 -7.12,7.12l-0.01 0.01zm0 -28.48l-42.72 0c-3.92,-0.01 -7.12,-3.2 -7.12,-7.13 0,-3.93 3.2,-7.12 7.12,-7.12l42.72 0c3.94,0 7.13,3.19 7.13,7.12 0,3.93 -3.19,7.12 -7.12,7.12l-0.01 0.01zm0 -28.49l-42.72 0c-3.92,0 -7.12,-3.19 -7.12,-7.12 0,-3.93 3.2,-7.12 7.12,-7.12l42.72 0c3.94,0 7.13,3.19 7.13,7.12 0,3.93 -3.19,7.12 -7.12,7.12l-0.01 0zm0 -28.48l-42.72 0c-3.92,0 -7.12,-3.19 -7.12,-7.12 0,-3.93 3.2,-7.12 7.12,-7.12l42.72 0c3.94,0 7.13,3.19 7.13,7.12 0,3.93 -3.19,7.12 -7.12,7.12l-0.01 0zm61.89 83.39c-1.25,1.32 -2.99,2.07 -4.81,2.07 -0.03,0 -0.07,0 -0.1,0l-36.89 0c0.85,-2.28 1.29,-4.7 1.29,-7.13 0,-2.43 -0.44,-4.84 -1.28,-7.12l36.88 0.01c3.93,-0.01 7.12,3.19 7.12,7.11 -0.03,1.92 -0.82,3.74 -2.21,5.06l0 0.01zm0 -28.49c-1.25,1.32 -2.99,2.07 -4.81,2.07 -0.03,0 -0.07,0 -0.1,0l-36.89 0.01c0.85,-2.28 1.29,-4.7 1.29,-7.13 0,-2.43 -0.44,-4.84 -1.28,-7.12l36.88 0c3.93,0 7.12,3.19 7.12,7.12 -0.03,1.92 -0.82,3.74 -2.21,5.06l0 0zm0 -28.48c-1.25,1.33 -2.99,2.07 -4.81,2.07 -0.03,0 -0.07,0 -0.1,0l-36.89 -0.01c0.85,-2.27 1.29,-4.69 1.29,-7.12 0,-2.43 -0.44,-4.84 -1.28,-7.12l36.88 0c3.93,0 7.12,3.19 7.12,7.12 -0.03,1.92 -0.82,3.74 -2.21,5.06z"/>
 </g>
</svg>
