<?xml version="1.0" encoding="UTF-8"?>
<!DOCTYPE svg PUBLIC "-//W3C//DTD SVG 1.1//EN" "http://www.w3.org/Graphics/SVG/1.1/DTD/svg11.dtd">
<!-- Creator: CorelDRAW 2021.5 -->
<svg xmlns="http://www.w3.org/2000/svg" xml:space="preserve" width="2.032mm" height="2.032mm" version="1.1" style="shape-rendering:geometricPrecision; text-rendering:geometricPrecision; image-rendering:optimizeQuality; fill-rule:evenodd; clip-rule:evenodd"
viewBox="0 0 189.88 189.88"
 xmlns:xlink="http://www.w3.org/1999/xlink"
 xmlns:xodm="http://www.corel.com/coreldraw/odm/2003">
 <defs>
  <style type="text/css">
   <![CDATA[
    .fil0 {fill:none}
    .fil1 {fill:white;fill-rule:nonzero}
   ]]>
  </style>
 </defs>
 <g id="Слой_x0020_1">
  <metadata id="CorelCorpID_0Corel-Layer"/>
  <polygon class="fil0" points="-0,0 189.88,0 189.88,189.88 -0,189.88 "/>
  <path class="fil1" d="M73.58 80.7l7.12 0c3.93,0 7.12,-3.19 7.12,-7.12 0,-3.93 -3.19,-7.12 -7.12,-7.12l-7.12 0c-3.92,0 -7.12,3.19 -7.12,7.12 0,3.93 3.2,7.12 7.12,7.12l0 0zm0 14.24c-3.92,0 -7.12,3.19 -7.12,7.12 0,3.92 3.2,7.12 7.12,7.12l42.72 0c3.93,0 7.12,-3.2 7.12,-7.12 0,-3.93 -3.19,-7.12 -7.12,-7.12l-42.72 0zm78.32 -21.79c-0.07,-0.65 -0.22,-1.3 -0.43,-1.92l0 -0.64c-0.34,-0.74 -0.8,-1.41 -1.35,-2l-42.71 -42.71c-0.59,-0.56 -1.26,-1.02 -2,-1.35 -0.1,-0.02 -0.21,-0.03 -0.32,-0.03 -0.11,0 -0.21,0.01 -0.32,0.03 -0.73,-0.41 -1.52,-0.68 -2.35,-0.78l-43.08 0c-11.79,0 -21.36,9.57 -21.36,21.36l0 99.68c0,11.79 9.57,21.36 21.37,21.36l71.19 0c11.79,0 21.36,-9.57 21.36,-21.36l0 -71.63zm-42.72 -25.14l18.44 18.45 -11.32 0c-3.93,0 -7.12,-3.19 -7.12,-7.12l0 -11.33zm28.48 96.77c0,3.92 -3.19,7.12 -7.12,7.12l-71.2 0c-3.92,0 -7.11,-3.2 -7.11,-7.12l-0.01 -99.68c0.01,-3.93 3.2,-7.12 7.13,-7.12l35.59 0 0 21.36c0,11.79 9.57,21.36 21.36,21.36l21.36 0 0 64.08zm-21.36 -21.36l-42.72 0c-3.92,-0.01 -7.12,3.19 -7.12,7.11 0,3.93 3.2,7.12 7.12,7.12l42.72 0.01c3.93,-0.01 7.12,-3.2 7.12,-7.13 0,-3.92 -3.19,-7.12 -7.12,-7.12l0 0.01z"/>
 </g>
</svg>
