<svg width="100" height="100" viewBox="0 0 100 100" fill="none" xmlns="http://www.w3.org/2000/svg">
<circle cx="50" cy="50" r="48.5" stroke="url(#paint0_linear)" stroke-width="3"/>
<path d="M38.75 49.5156C44.4219 49.5156 49.0625 44.9323 49.0625 39.2031C49.0625 33.474 44.4219 28.8906 38.75 28.8906C33.25 28.8906 28.4375 33.5885 28.4375 39.2031C28.4375 44.9323 33.0781 49.5156 38.75 49.5156ZM34.4531 70.599L70.6042 34.5052L66.3073 30.2083L30.1563 66.3021L34.4531 70.599ZM38.75 44.5885C35.7708 44.5885 33.3646 42.1823 33.3646 39.2031C33.3646 36.224 35.7708 33.7604 38.75 33.7604C41.7292 33.7604 44.1927 36.224 44.1927 39.2031C44.1927 42.1823 41.7292 44.5885 38.75 44.5885ZM62.0104 71.8594C67.6823 71.8594 72.3229 67.276 72.3229 61.5469C72.3229 55.8177 67.6823 51.2344 62.0104 51.2344C56.5104 51.2344 51.6979 55.9323 51.6979 61.5469C51.6979 67.276 56.3385 71.8594 62.0104 71.8594ZM62.0104 66.9323C59.0313 66.9323 56.5677 64.526 56.5677 61.5469C56.5677 58.5677 59.0313 56.1042 62.0104 56.1042C64.9323 56.1042 67.3958 58.5677 67.3958 61.5469C67.3958 64.526 64.9323 66.9323 62.0104 66.9323Z" fill="#5DBC12"/>
<defs>
<linearGradient id="paint0_linear" x1="50" y1="0" x2="50" y2="100" gradientUnits="userSpaceOnUse">
<stop stop-color="#6860CC"/>
<stop offset="1" stop-color="#857BFB"/>
</linearGradient>
</defs>
</svg>
