<svg width="76" height="50" viewBox="0 0 76 50" fill="none" xmlns="http://www.w3.org/2000/svg">
<path d="M25.5 24.5V9H29V9.5L34.5 9C35.2908 9.00571 35.5977 9.27326 36 10V24.5H33V12H28.5V24.5H25.5Z" fill="black"/>
<path d="M65 24.5V9H68.5V9.5C68.5 9.5 73.8358 8.88008 74.5 9C75.1642 9.11992 75.3554 9.36218 75.5 10C75.6446 10.6378 75.5 15 75.5 15H72.5V12H68.5V24.5H65Z" fill="black"/>
<path d="M59 34V27.5H62V34H65.5V36.5H62V47H65.5V49.5H60C59.216 49.4933 58.9667 49.1827 59 48V36.5H57V34H59Z" fill="black"/>
<path d="M53 38.5V36H49V38.5C49 38.5 56 42.5 56 43V48C55.9913 48.5903 55.9216 49.0001 55.5 49H47.5C46.711 48.9693 46.5418 48.7007 46.5 48V45H49L49.5 47H53V45L46 40.5V35C45.9874 34.328 46.1965 34.1134 47 34H54.5C55.2562 34.1667 55.4232 34.4131 55.5 35V38.5H53Z" fill="black"/>
<path d="M30.5 33.5L26.5 49.5H23.5L19.5 33.5H22.5L25 43.5L27.5 33.5H30.5Z" fill="black"/>
<path d="M17 35V49H14V36.5H10V49H7V33.5H10V34.5L16 34C16.7922 34.0831 16.8724 34.4062 17 35Z" fill="black"/>
<path d="M4 49V33.5H0.5V49H4Z" fill="black"/>
<path d="M0.5 27.5V31H4V27.5H0.5Z" fill="black"/>
<path fill-rule="evenodd" clip-rule="evenodd" d="M12.5 10V23.5C12.495 24.24 12.6477 24.5203 13.5 24.5H22C22.3417 24.4963 22.4576 24.3953 22.5 24V19.5H19.5V22H15.5V17.5H22L22.5 16.5V10C22.4722 9.20556 22.3329 9.06469 22 9H13.5C12.7818 9.11076 12.6003 9.36574 12.5 10ZM15.5 15V11.5H19.5V15H15.5Z" fill="black"/>
<path d="M0 0V24.5H10.5V21H4V0H0Z" fill="black"/>
<path fill-rule="evenodd" clip-rule="evenodd" d="M40.5 9C39.6305 8.94019 39.446 9.19157 39.5 10V23.5C39.4907 24.4648 39.8014 24.546 40.5 24.5L46 24V24.5H49.5V0H46.5V9.5L40.5 9ZM42 22V12H46V22H42Z" fill="black"/>
<path fill-rule="evenodd" clip-rule="evenodd" d="M52 10C52.0483 9.38721 52.2588 9.10118 53 9H61C61.8245 9.05435 61.9578 9.3457 62 10V16.5C62.0262 17.3072 61.7957 17.5146 61 17.5H55.5V22H59V19.5H62V23.5C62 23.5 62 24.5 61 24.5H53C52.2437 24.5309 52.0466 24.4079 52 24C51.9534 23.5921 52 10 52 10ZM55.5 15V11.5H59V15H55.5Z" fill="black"/>
<path fill-rule="evenodd" clip-rule="evenodd" d="M43 41.5V35C42.9964 34.2171 42.7166 34.0674 42 34H34C33.193 34.0803 32.9986 34.3089 33 35V48C32.9311 49.3679 33.2725 49.4907 34 49.5H42L43 49V44.5H40.5V47H36V42.5H42C42.7504 42.5616 43.0177 42.4054 43 41.5ZM40 36V40H36V36H40Z" fill="black"/>
<path d="M7 30.5V27H57V30.5H7Z" fill="url(#paint0_linear)"/>
<defs>
<linearGradient id="paint0_linear" x1="32" y1="27" x2="32" y2="30.5" gradientUnits="userSpaceOnUse">
<stop stop-color="#6860CC"/>
<stop offset="1" stop-color="#857BFB"/>
</linearGradient>
</defs>
</svg>
