<svg width="16" height="23" viewBox="0 0 16 23" fill="none" xmlns="http://www.w3.org/2000/svg">
    <path
        d="M13.0899 2.81982C12.1702 2.06341 11.0933 1.52185 9.9376 1.23467C8.78194 0.947483 7.57674 0.921913 6.40994 1.15982C4.85632 1.47365 3.43093 2.2419 2.31462 3.3671C1.19832 4.49231 0.441414 5.92376 0.139942 7.47982C-0.0802115 8.64655 -0.0402063 9.84747 0.257104 10.997C0.554414 12.1464 1.1017 13.2162 1.85994 14.1298C2.56363 14.9239 2.96698 15.9393 2.99994 16.9998V19.9998C2.99994 20.7955 3.31601 21.5585 3.87862 22.1211C4.44123 22.6838 5.20429 22.9998 5.99994 22.9998H9.99994C10.7956 22.9998 11.5587 22.6838 12.1213 22.1211C12.6839 21.5585 12.9999 20.7955 12.9999 19.9998V17.1898C13.0335 16.019 13.4637 14.8943 14.2199 13.9998C15.5451 12.3606 16.1697 10.2646 15.9581 8.16745C15.7465 6.07026 14.7158 4.14131 13.0899 2.79982V2.81982ZM10.9999 19.9998C10.9999 20.265 10.8946 20.5194 10.707 20.7069C10.5195 20.8945 10.2652 20.9998 9.99994 20.9998H5.99994C5.73473 20.9998 5.48037 20.8945 5.29284 20.7069C5.1053 20.5194 4.99994 20.265 4.99994 19.9998V18.9998H10.9999V19.9998ZM12.6699 12.7598C11.6644 13.9524 11.0778 15.4419 10.9999 16.9998H8.99994V13.9998C8.99994 13.7346 8.89458 13.4803 8.70705 13.2927C8.51951 13.1052 8.26516 12.9998 7.99994 12.9998C7.73473 12.9998 7.48037 13.1052 7.29284 13.2927C7.1053 13.4803 6.99994 13.7346 6.99994 13.9998V16.9998H4.99994C4.97356 15.4679 4.40689 13.9946 3.39994 12.8398C2.73558 12.0438 2.28883 11.0892 2.10325 10.0692C1.91767 9.0491 1.99959 7.99834 2.34103 7.01935C2.68247 6.04037 3.27176 5.16657 4.05146 4.48315C4.83116 3.79973 5.77465 3.33002 6.78994 3.11982C7.66249 2.94017 8.5641 2.95707 9.42931 3.16929C10.2945 3.38152 11.1016 3.78375 11.792 4.34678C12.4824 4.9098 13.0387 5.6195 13.4206 6.42434C13.8025 7.22918 14.0004 8.10897 13.9999 8.99982C14.0073 10.3697 13.537 11.6993 12.6699 12.7598Z"
        fill="url(#paint0_linear)" />
    <defs>
        <linearGradient id="paint0_linear" x1="8" y1="0" x2="8" y2="20" gradientUnits="userSpaceOnUse">
            <stop stop-color="#6860CC" />
            <stop offset="1" stop-color="#857BFB" />
        </linearGradient>
    </defs>
</svg>