<svg width="39" height="13" viewBox="0 0 39 13" fill="none" xmlns="http://www.w3.org/2000/svg">
<g clip-path="url(#clip0)">
<path d="M12.6583 1.80284H11.503H10.9685L10.2251 6.13525H8.17874L8.92208 1.80284C8.55557 1.80284 7.70429 1.8179 7.28429 1.80284L7.54034 0.123779L13.1213 0.0830078L13.1205 0.0869478C12.9715 0.834218 12.6583 1.80284 12.6583 1.80284Z" fill="#1F1F1F"/>
<path d="M14.805 1.76588L15.539 1.75041C16.0025 1.75041 16.2299 1.91838 16.2299 2.26316C16.2299 2.76706 15.9238 3.09416 15.3029 3.09416H12.8255L12.2946 6.13526H14.341L14.5946 4.72079H15.198L15.6964 6.13526H18.0576L17.2006 4.16384C17.9702 3.62458 18.3549 2.87314 18.3549 1.90954C18.3549 0.707241 17.5417 0.0618896 16.0113 0.0618896C15.8488 0.0618896 15.6654 0.0631715 15.4613 0.0659073L13.3626 0.0812388C13.3644 0.228454 13.363 0.395313 13.3595 0.569804C13.4448 1.13634 13.7483 1.78001 14.5443 1.76237C14.6723 1.75953 14.757 1.76095 14.805 1.76588Z" fill="#1F1F1F"/>
<path d="M30.8666 0.327095C30.0181 0.106084 29.24 0 28.5404 0C27.3423 0 26.3715 0.344774 25.637 1.02549C24.9111 1.7062 24.5438 2.59908 24.5438 3.71297C24.5438 4.48209 24.8062 5.09207 25.3396 5.56061C25.8731 6.02916 26.5815 6.25902 27.4559 6.25902C28.1555 6.25902 28.9601 6.15294 29.8783 5.93193L29.8959 4.15501C28.8814 4.29643 28.243 4.36715 27.9719 4.36715C27.2723 4.36715 26.8088 3.96048 26.8088 3.35935C26.8088 2.47532 27.3423 1.88301 28.4267 1.88301C28.7939 1.88301 29.4061 1.96257 30.2544 2.11286L30.8666 0.327095Z" fill="#1F1F1F"/>
<path fill-rule="evenodd" clip-rule="evenodd" d="M9.20676 11.5197L9.70443 12.938H18.9018L17.4176 6.87481H15.5667L12.0228 12.8482L11.2061 10.9613C11.9744 10.4205 12.3585 9.66708 12.3585 8.70087C12.3585 7.49536 11.5466 6.84827 10.0187 6.84827C9.4163 6.84827 8.5258 6.86595 7.35586 6.91029L7.31175 7.16406C7.4054 7.9077 7.83715 8.58418 8.68118 8.53129L8.57766 8.54131H9.54725C10.01 8.54131 10.237 8.70973 10.237 9.05543C10.237 9.56072 9.93143 9.88869 9.31153 9.88869H6.83817L6.30818 12.938H8.35117L8.60435 11.5197H9.20676ZM16.5831 11.375H14.9167L16.1691 9.02888L16.5831 11.375Z" fill="#1F1F1F"/>
<path fill-rule="evenodd" clip-rule="evenodd" d="M22.7342 6.84827C22.1928 6.84827 21.3896 6.86595 20.3245 6.91029L19.2768 12.938C20.3333 12.9823 21.1627 13 21.7476 13C22.9175 13 23.8604 12.6721 24.5676 12.0072C25.2835 11.3424 25.6415 10.456 25.6415 9.36568C25.6415 8.61223 25.3708 8.00058 24.8383 7.53966C24.3057 7.07871 23.6072 6.84827 22.7342 6.84827ZM21.6254 11.2183L22.0707 8.63885C22.1842 8.62995 22.3675 8.62995 22.6032 8.62995C23.162 8.62995 23.5287 9.03774 23.5287 9.64936C23.5287 10.5978 22.9786 11.2183 22.1492 11.2183H21.6254Z" fill="#1F1F1F"/>
<path fill-rule="evenodd" clip-rule="evenodd" d="M30.2492 6.87476L31.7335 12.9379H24.8014L28.3984 6.87476H30.2492ZM27.7484 11.375H29.4148L29.0008 9.02879L27.7484 11.375Z" fill="#1F1F1F"/>
<path d="M34.9898 11.5197L35.4875 12.938H37.8444L36.9888 10.9613C37.7572 10.4205 38.1413 9.66708 38.1413 8.70087C38.1413 7.49536 37.3295 6.84827 35.8016 6.84827C35.2044 6.84827 34.3239 6.86568 33.1689 6.90916C33.1886 7.74468 33.6173 8.5902 34.5574 8.53129L34.454 8.54131H35.3301C35.7928 8.54131 36.02 8.70973 36.02 9.05543C36.02 9.56072 35.7143 9.88869 35.0943 9.88869H32.621L32.0911 12.938H34.1342L34.3872 11.5197H34.9898Z" fill="#1F1F1F"/>
<path d="M33.1508 6.90979C33.1407 6.94687 33.1297 6.98577 33.1187 7.02611L33.1386 6.91023L33.1508 6.90979Z" fill="#1F1F1F"/>
<path d="M22.7993 0.123779H24.8806L24.3472 3.21794C24.0061 5.17165 22.7643 6.26786 20.8841 6.26786C19.0039 6.26786 18.1469 5.17165 18.488 3.21794L19.0214 0.123779H21.1028L20.5693 3.21794C20.4381 3.93398 20.6655 4.33182 21.2164 4.33182C21.7674 4.33182 22.1347 3.93398 22.2659 3.21794L22.7993 0.123779Z" fill="#1F1F1F"/>
<path d="M32.6702 4.38484H33.2735L34.0692 6.13526H36.5182L34.8828 2.93503L37.331 0.123779H34.909L33.0198 2.37809L33.4134 0.123779H31.3672L30.3176 6.13526H32.3641L32.6702 4.38484Z" fill="#1F1F1F"/>
<path d="M3.30158 6.5C5.09118 6.5 6.54197 5.04492 6.54197 3.25C6.54197 1.45507 5.09118 0 3.30158 0C1.51197 0 0.0611992 1.45507 0.0611992 3.25C0.0611992 5.04492 1.51197 6.5 3.30158 6.5Z" fill="#0088F6"/>
</g>
<defs>
<clipPath id="clip0">
<rect width="38.0802" height="13" fill="white" transform="translate(0.0611992)"/>
</clipPath>
</defs>
</svg>
