<svg width="32" height="27" viewBox="0 0 32 27" fill="none" xmlns="http://www.w3.org/2000/svg">
<path d="M28 11.25C28 19.125 16 25.875 16 25.875C16 25.875 4 19.125 4 11.25C4 8.56468 5.26428 5.98935 7.51472 4.09054C9.76516 2.19174 12.8174 1.125 16 1.125C19.1826 1.125 22.2348 2.19174 24.4853 4.09054C26.7357 5.98935 28 8.56468 28 11.25Z" stroke="#5DBC12" stroke-width="2" stroke-linecap="round" stroke-linejoin="round"/>
<path d="M16 14.625C18.2091 14.625 20 13.114 20 11.25C20 9.38604 18.2091 7.875 16 7.875C13.7909 7.875 12 9.38604 12 11.25C12 13.114 13.7909 14.625 16 14.625Z" stroke="#5DBC12" stroke-width="2" stroke-linecap="round" stroke-linejoin="round"/>
</svg>
