<svg width="24" height="24" viewBox="0 0 24 24" fill="none" xmlns="http://www.w3.org/2000/svg">
    <defs>
        <linearGradient id="paint0_linear" gradientUnits="userSpaceOnUse" x1="41.94" y1="31.45" x2="41.94" y2="52.42">
            <stop offset="0" stop-color="#6860cc" />
            <stop offset="1" stop-color="#857bfb" />
        </linearGradient>
    </defs>
    <path
        d="M51.83 51.8l-.02.02a13.95 13.95 0 01-9.87 4.09c-3.86 0-7.36-1.57-9.89-4.09a13.944 13.944 0 01-4.09-9.89c0-3.85 1.57-7.34 4.09-9.87l.01-.01c2.53-2.53 6.02-4.09 9.87-4.09 3.86 0 7.36 1.57 9.89 4.09 2.53 2.53 4.09 6.03 4.09 9.89 0 3.84-1.56 7.33-4.09 9.87zM71 53.82c-.09.21-.15.43-.18.65-.03.25-.03.48.01.68a2.317 2.317 0 00.59 1.16l.43.44c.39.42.75.87 1.07 1.35.39.58.72 1.19.98 1.81l.08.21c.23.58.41 1.17.52 1.76.14.68.21 1.36.21 2.05 0 .69-.07 1.37-.2 2.05l-.04.17c-.13.6-.32 1.2-.57 1.79-.26.63-.59 1.24-.98 1.82-.38.57-.81 1.1-1.3 1.58-.48.48-1.02.92-1.58 1.3-.57.38-1.18.71-1.82.97-.65.27-1.31.47-1.95.6-.67.14-1.36.21-2.05.21-.69 0-1.37-.07-2.05-.2l-.17-.04c-.59-.13-1.19-.32-1.79-.56-.68-.28-1.29-.6-1.82-.96l-.3-.22c-.46-.33-.89-.69-1.28-1.09l-.3-.29c-.13-.11-.28-.21-.43-.29-.21-.11-.43-.18-.63-.22-.21-.04-.44-.04-.69-.01-.22.03-.44.09-.65.18l-.03.01c-.21.09-.4.21-.56.34l-.12.1c-.12.11-.23.25-.32.4-.13.2-.23.4-.29.59-.06.24-.1.45-.1.65l.01.59c0 1.38-.28 2.74-.81 4.01l-.09.2c-.52 1.2-1.26 2.28-2.17 3.2-.97.97-2.13 1.73-3.4 2.26-1.27.53-2.63.81-4.01.81s-2.74-.28-4.01-.81l-.2-.09c-1.2-.52-2.28-1.26-3.2-2.17-.97-.97-1.73-2.13-2.26-3.4-.53-1.27-.81-2.63-.81-4.01v-.43c-.02-.16-.05-.32-.1-.47-.07-.19-.18-.4-.32-.6l-.09-.13c-.11-.14-.24-.26-.37-.36-.18-.13-.39-.24-.6-.32l-.2-.08c-.21-.09-.43-.15-.65-.18-.25-.03-.48-.03-.68.01a2.317 2.317 0 00-1.16.59l-.44.43a10.613 10.613 0 01-3.16 2.06l-.21.08c-.59.23-1.18.41-1.76.52-.67.14-1.36.21-2.05.21-.69 0-1.37-.07-2.05-.2l-.17-.04c-.59-.13-1.19-.32-1.79-.56-.63-.26-1.24-.59-1.82-.98-.57-.38-1.1-.81-1.58-1.3-.49-.48-.93-1.01-1.31-1.58l-.18-.31a10.623 10.623 0 01-1.38-3.47c-.14-.67-.21-1.36-.21-2.05 0-.69.07-1.37.2-2.05l.04-.17c.13-.59.32-1.19.56-1.79.27-.64.59-1.25.97-1.82.4-.6.84-1.14 1.29-1.59l.3-.29c.11-.13.21-.28.29-.43.11-.21.18-.43.22-.63.04-.21.04-.44.01-.69-.03-.22-.09-.44-.18-.65l-.01-.03c-.09-.21-.21-.4-.34-.56l-.1-.12c-.11-.12-.25-.23-.4-.32-.2-.13-.4-.23-.59-.29-.24-.06-.46-.1-.65-.1l-.59.01c-1.38 0-2.74-.28-4.01-.81l-.2-.09c-1.2-.52-2.28-1.26-3.2-2.17-.97-.97-1.73-2.13-2.26-3.4C.28 44.98 0 43.62 0 42.24s.28-2.74.81-4.01l.09-.2c.52-1.2 1.26-2.28 2.17-3.2.97-.97 2.13-1.73 3.4-2.26 1.27-.53 2.63-.81 4.01-.81h.43c.16-.02.32-.05.47-.1.19-.07.4-.18.6-.32l.13-.09c.14-.11.26-.24.36-.37.13-.18.24-.39.32-.6l.08-.2c.09-.21.15-.43.18-.65.03-.25.03-.48-.01-.68a2.317 2.317 0 00-.59-1.16l-.43-.44a10.613 10.613 0 01-2.06-3.16l-.08-.21c-.23-.58-.4-1.17-.52-1.76-.14-.67-.21-1.36-.21-2.05 0-.69.07-1.37.2-2.05l.04-.17c.13-.59.32-1.19.56-1.79.26-.63.59-1.24.98-1.82.38-.57.81-1.1 1.3-1.58.48-.49 1.01-.93 1.58-1.31l.31-.18a10.623 10.623 0 013.47-1.38c.67-.14 1.36-.21 2.05-.21.69 0 1.37.07 2.05.2l.17.04c.6.13 1.2.32 1.79.57.64.27 1.25.59 1.82.97.6.4 1.14.84 1.59 1.29l.29.3c.13.11.28.21.43.29.21.11.43.18.63.22.2.04.44.04.69.01.22-.03.44-.09.65-.18.23-.1.46-.18.7-.22l.29-.22c.12-.11.23-.25.33-.4.13-.2.23-.4.29-.59.06-.23.1-.45.1-.64l-.01-.59c0-1.38.28-2.74.81-4.01l.09-.2c.53-1.2 1.26-2.29 2.17-3.2.96-.96 2.13-1.73 3.4-2.26 1.27-.53 2.63-.81 4.01-.81s2.74.28 4.01.81l.2.09c1.2.53 2.29 1.26 3.2 2.17.96.96 1.73 2.13 2.26 3.4.53 1.27.81 2.63.81 4.01v.48c.02.15.05.31.1.48l.05.17c.06.14.13.29.23.43.12.18.27.35.44.49l.1.09c.13.1.29.18.45.25l.04.02c.21.09.43.15.65.17.25.03.48.03.68-.01a2.317 2.317 0 001.16-.59l.44-.43a10.613 10.613 0 013.16-2.06l.21-.08c.58-.23 1.17-.41 1.76-.52.68-.14 1.36-.21 2.05-.21.69 0 1.37.07 2.05.2l.17.04c.6.13 1.2.32 1.79.57.63.26 1.24.59 1.82.98.57.38 1.1.81 1.58 1.3.48.48.92 1.02 1.3 1.58.38.57.71 1.18.97 1.82.27.65.47 1.31.6 1.95.14.67.21 1.36.21 2.05 0 .69-.07 1.37-.2 2.05l-.04.17c-.13.6-.32 1.2-.57 1.79-.28.68-.6 1.29-.96 1.82l-.22.3c-.33.46-.69.89-1.09 1.29l-.29.3c-.11.13-.21.28-.29.43-.11.21-.18.43-.22.63-.04.2-.04.44-.01.69.03.22.09.44.18.65.1.23.18.46.22.7l.22.29c.11.12.25.23.4.33.2.13.4.23.59.29.23.06.45.1.64.1l.59-.01c1.38 0 2.74.28 4.01.81l.2.09c1.2.53 2.29 1.26 3.2 2.17.96.96 1.73 2.13 2.26 3.4.53 1.27.81 2.63.81 4.01s-.28 2.74-.81 4.01l-.09.2a10.53 10.53 0 01-2.17 3.2c-.96.96-2.13 1.73-3.4 2.26-1.27.53-2.63.81-4.01.81h-.48c-.15.02-.31.05-.48.1l-.17.05c-.14.06-.29.13-.43.23-.18.12-.35.27-.49.44l-.09.1c-.1.13-.18.29-.25.45l-.01.04zm-7.11-.17c.11-.91.35-1.8.72-2.65.31-.71.72-1.39 1.2-2.01l.19-.25c.57-.68 1.24-1.28 1.99-1.78a9.49 9.49 0 012.07-1.02l.36-.13c.71-.22 1.48-.34 2.27-.38l.71-.02c.47 0 .93-.09 1.34-.26.41-.16.79-.42 1.13-.76.31-.31.55-.65.72-1.01l.05-.13c.17-.41.26-.86.26-1.34 0-.47-.09-.93-.26-1.34-.16-.41-.42-.79-.76-1.13a3.61 3.61 0 00-1.01-.72l-.13-.05c-.41-.17-.86-.26-1.34-.26l-.61-.01c-.93 0-1.82-.13-2.65-.38-.87-.28-1.69-.66-2.42-1.15a9.16 9.16 0 01-1.79-1.56l-.2-.22c-.5-.6-.94-1.28-1.28-2.01-.2-.37-.33-.78-.39-1.22-.22-.63-.37-1.29-.45-1.95-.1-.88-.07-1.81.09-2.73.17-.92.47-1.8.88-2.6.37-.72.84-1.39 1.38-1.99l.79-.85.1-.17c.15-.23.26-.43.33-.6.07-.17.13-.36.17-.56l.02-.11c.04-.22.07-.45.07-.68 0-.23-.02-.46-.07-.68v-.01c-.05-.24-.11-.46-.19-.66a2.89 2.89 0 00-.32-.6c-.12-.19-.27-.36-.43-.53l-.01-.01c-.16-.16-.34-.31-.53-.43-.18-.12-.38-.23-.61-.32-.16-.07-.35-.13-.55-.17l-.11-.02c-.22-.04-.45-.07-.68-.07-.23 0-.46.02-.68.07h-.01c-.19.04-.37.09-.54.15l-.1.05c-.23.09-.43.2-.61.32l-.39.31c-.1.11-.27.31-.38.38-.66.64-1.41 1.18-2.22 1.6-.8.41-1.68.71-2.6.88-.93.17-1.85.2-2.73.09-.91-.11-1.8-.35-2.65-.72-.71-.31-1.39-.72-2.01-1.2l-.25-.19a9.396 9.396 0 01-1.78-1.99 9.49 9.49 0 01-1.02-2.07l-.13-.36c-.22-.71-.34-1.48-.38-2.27l-.02-.71c0-.47-.09-.93-.26-1.34-.16-.41-.42-.79-.76-1.13a3.61 3.61 0 00-1.01-.72l-.13-.05c-.41-.17-.86-.26-1.34-.26-.47 0-.93.09-1.34.26-.41.16-.79.42-1.13.76-.31.31-.55.65-.72 1.01l-.05.13c-.17.41-.26.86-.26 1.34l-.01.61c0 .93-.13 1.82-.38 2.65-.28.87-.66 1.69-1.15 2.42-.44.66-.96 1.26-1.57 1.8l-.22.2c-.6.51-1.28.94-2.01 1.28-.37.2-.78.33-1.21.39-.63.22-1.29.37-1.95.45-.88.1-1.81.07-2.73-.09-.92-.17-1.8-.47-2.6-.88-.72-.37-1.39-.84-1.99-1.38l-.48-.46a3.86 3.86 0 00-.53-.45c-.19-.13-.39-.23-.59-.32-.17-.07-.36-.13-.56-.17l-.11-.02c-.22-.04-.45-.07-.68-.07-.23 0-.46.02-.68.07h-.01c-.24.05-.46.11-.66.19l-.42.21-.18.13c-.19.12-.37.27-.53.43h-.01c-.16.16-.31.34-.43.53-.12.18-.23.38-.32.61-.07.16-.13.35-.17.55l-.02.11c-.04.22-.07.45-.07.68 0 .23.02.46.07.68v.01c.04.19.09.38.15.54l.04.1c.09.23.2.43.32.61l.31.39c.11.1.31.27.38.38.64.66 1.18 1.41 1.6 2.22.41.8.71 1.68.88 2.6.17.93.2 1.85.09 2.73-.1.88-.34 1.74-.69 2.56a9.298 9.298 0 01-3.02 4.03l-.23.18c-.74.53-1.57.95-2.46 1.24-.76.25-1.54.4-2.33.46l-.78.03c-.47 0-.93.09-1.34.26-.41.16-.79.42-1.13.76-.31.31-.55.65-.72 1.01l-.05.12c-.17.41-.26.86-.26 1.34 0 .47.09.93.26 1.34.16.41.42.79.76 1.13.31.31.65.55 1.01.72l.12.05c.41.17.86.26 1.34.26l.61.01c.93 0 1.82.14 2.65.39.87.28 1.69.66 2.42 1.15.66.44 1.27.96 1.8 1.57l.19.21c.58.69 1.05 1.46 1.41 2.28.36.83.6 1.72.71 2.62.1.88.07 1.81-.09 2.73-.17.92-.47 1.8-.88 2.6-.37.72-.84 1.39-1.38 1.99l-.46.48c-.19.19-.34.37-.45.53-.13.19-.23.39-.32.59-.07.17-.13.36-.17.56l-.02.11c-.04.22-.07.45-.07.68 0 .23.02.46.07.68v.01c.05.24.11.46.19.66l.21.42.12.17c.12.19.27.37.43.53v.01c.16.16.34.31.53.43.18.12.38.23.61.32.16.07.35.13.55.17l.11.02c.22.04.45.07.68.07.23 0 .46-.02.68-.07h.01c.19-.04.38-.09.54-.15l.1-.04c.23-.09.43-.2.61-.32l.39-.31c.1-.11.27-.31.38-.38.66-.64 1.41-1.18 2.22-1.6.8-.41 1.68-.71 2.6-.88.93-.17 1.85-.2 2.73-.09.88.1 1.74.34 2.56.69a9.298 9.298 0 014.04 3.03l.18.23c.53.74.95 1.57 1.24 2.46.25.76.4 1.54.46 2.33l.03.78c0 .47.09.93.26 1.34.16.41.42.79.76 1.13.31.31.65.55 1.01.72l.12.05c.41.17.86.26 1.34.26.47 0 .93-.09 1.34-.26.41-.16.79-.42 1.13-.76.31-.31.55-.65.72-1.01l.05-.12c.17-.41.26-.86.26-1.34l.01-.61c0-.93.14-1.82.39-2.65.28-.87.66-1.69 1.15-2.42.44-.66.96-1.27 1.57-1.8l.21-.19c.69-.58 1.46-1.05 2.28-1.41.83-.36 1.72-.6 2.62-.71.88-.1 1.81-.07 2.73.09.92.17 1.8.47 2.6.88.72.37 1.39.84 1.99 1.38l.85.79.17.1c.23.15.43.26.6.33.17.07.36.13.56.17l.11.02c.22.04.45.07.68.07.23 0 .46-.02.68-.07h.01c.24-.05.46-.11.66-.19s.41-.19.6-.32c.18-.12.36-.27.53-.43l.01-.01c.16-.16.31-.34.43-.53.12-.18.23-.38.32-.61.07-.16.13-.35.17-.55l.02-.11c.04-.22.07-.45.07-.68 0-.23-.02-.46-.07-.68v-.01c-.04-.19-.09-.37-.15-.54l-.05-.1c-.09-.23-.2-.43-.32-.61l-.31-.39c-.11-.1-.31-.27-.38-.38a9.427 9.427 0 01-1.6-2.22c-.41-.8-.71-1.68-.88-2.6a8.99 8.99 0 01-.09-2.73z" />
</svg>