<svg width="22" height="20" viewBox="0 0 22 20" fill="none" xmlns="http://www.w3.org/2000/svg">
    <path
        d="M11 4.05485e-05C9.46788 -0.00273137 7.95562 0.346579 6.57993 1.02101C5.20425 1.69544 4.00192 2.67696 3.06577 3.8898C2.12961 5.10264 1.48466 6.51438 1.18069 8.01604C0.87672 9.51769 0.921863 11.0691 1.31263 12.5506C1.7034 14.032 2.42935 15.4038 3.43445 16.5602C4.43954 17.7166 5.6969 18.6265 7.10948 19.2198C8.52205 19.8131 10.0521 20.0739 11.5814 19.982C13.1108 19.8902 14.5986 19.4481 15.93 18.69H16H16.05C17.9753 17.5941 19.4821 15.8898 20.3339 13.8448C21.1858 11.7997 21.3345 9.52974 20.7566 7.39107C20.1788 5.25241 18.9071 3.36618 17.1412 2.02845C15.3753 0.690735 13.2152 -0.022735 11 4.05485e-05ZM12 2.07004C13.76 2.29323 15.3959 3.09514 16.6504 4.34963C17.9049 5.60412 18.7068 7.24002 18.93 9.00004H12V2.07004ZM11 18C8.9745 17.9862 7.02965 17.2046 5.55793 15.8129C4.08621 14.4212 3.1972 12.523 3.0703 10.5014C2.94339 8.47988 3.58805 6.48543 4.87417 4.9206C6.1603 3.35577 7.99213 2.33705 10 2.07004V10C10.0039 10.1198 10.0276 10.238 10.07 10.35V10.43V10.5L14.07 17.37C13.0997 17.7853 12.0554 17.9996 11 18ZM15.83 16.36L12.73 11H18.93C18.7954 12.0546 18.4519 13.0718 17.9196 13.9921C17.3873 14.9124 16.6769 15.7174 15.83 16.36Z" />
    <defs>
        <linearGradient id="paint0_linear" x1="11.0424" y1="-0.000488281" x2="11.0424" y2="20"
            gradientUnits="userSpaceOnUse">
            <stop stop-color="#6860CC" />
            <stop offset="1" stop-color="#857BFB" />
        </linearGradient>
    </defs>
</svg>