<svg width="80" height="28" viewBox="0 0 80 28" fill="none" xmlns="http://www.w3.org/2000/svg">
<g clip-path="url(#clip0)">
<path d="M26.3769 3.77497H23.9579H22.8387L21.2822 12.8466H16.9973L18.5537 3.77497C17.7863 3.77497 16.0038 3.80651 15.1244 3.77497L15.6605 0.259198L27.3466 0.173828L27.3449 0.182078C27.0328 1.74678 26.3769 3.77497 26.3769 3.77497Z" fill="white"/>
<path d="M30.8719 3.69785L32.409 3.66546C33.3795 3.66546 33.8556 4.01717 33.8556 4.7391C33.8556 5.79422 33.2147 6.47913 31.9146 6.47913H26.7271L25.6155 12.8469H29.9003L30.4314 9.88512H31.6948L32.7386 12.8469H37.6827L35.8881 8.71893C37.4995 7.58978 38.3052 6.01635 38.3052 3.99866C38.3052 1.48118 36.6023 0.129883 33.3978 0.129883C33.0576 0.129883 32.6736 0.132567 32.2461 0.138295L27.8518 0.170398C27.8555 0.478651 27.8527 0.828036 27.8453 1.1934C28.0239 2.37966 28.6594 3.72745 30.3261 3.6905C30.5942 3.68456 30.7714 3.68752 30.8719 3.69785Z" fill="white"/>
<path d="M64.5033 0.684902C62.7267 0.222129 61.0973 0 59.6324 0C57.1237 0 55.0911 0.721919 53.553 2.14726C52.0331 3.57261 51.264 5.4422 51.264 7.77457C51.264 9.38502 51.8134 10.6622 52.9304 11.6433C54.0474 12.6244 55.5306 13.1057 57.3617 13.1057C58.8266 13.1057 60.5113 12.8836 62.4339 12.4208L62.4707 8.70014C60.3465 8.99627 59.0098 9.14433 58.4421 9.14433C56.9771 9.14433 56.0067 8.29283 56.0067 7.03412C56.0067 5.18305 57.1237 3.94282 59.3943 3.94282C60.1633 3.94282 61.4452 4.10942 63.2213 4.4241L64.5033 0.684902Z" fill="white"/>
<path fill-rule="evenodd" clip-rule="evenodd" d="M19.1499 24.1209L20.1919 27.0906H39.4502L36.3424 14.3949H32.4668L25.0464 26.9027L23.3363 22.9515C24.945 21.8193 25.7494 20.2416 25.7494 18.2185C25.7494 15.6943 24.0492 14.3394 20.85 14.3394C19.5886 14.3394 17.724 14.3764 15.2743 14.4692L15.1819 15.0006C15.378 16.5577 16.2821 17.9742 18.0494 17.8634L17.8326 17.8844H19.8628C20.8317 17.8844 21.307 18.2371 21.307 18.9609C21.307 20.0189 20.6673 20.7057 19.3693 20.7057H14.1903L13.0806 27.0906H17.3584L17.8885 24.1209H19.1499ZM34.5951 23.8179H31.1059L33.7282 18.9053L34.5951 23.8179Z" fill="white"/>
<path fill-rule="evenodd" clip-rule="evenodd" d="M47.4748 14.3394C46.3413 14.3394 44.6595 14.3764 42.4292 14.4692L40.2355 27.0906C42.4475 27.1834 44.1842 27.2205 45.409 27.2205C47.8587 27.2205 49.833 26.5338 51.3138 25.1416C52.8128 23.7496 53.5624 21.8936 53.5624 19.6106C53.5624 18.0329 52.9957 16.7522 51.8806 15.7871C50.7654 14.8219 49.3029 14.3394 47.4748 14.3394ZM45.1531 23.4898L46.0855 18.0886C46.3231 18.07 46.707 18.07 47.2006 18.07C48.3706 18.07 49.1384 18.9239 49.1384 20.2045C49.1384 22.1905 47.9866 23.4898 46.2499 23.4898H45.1531Z" fill="white"/>
<path fill-rule="evenodd" clip-rule="evenodd" d="M63.2106 14.395L66.3184 27.0906H51.8033L59.3351 14.395H63.2106ZM57.9742 23.818H61.4633L60.5965 18.9053L57.9742 23.818Z" fill="white"/>
<path d="M73.1368 24.1209L74.179 27.0906H79.1141L77.3226 22.9515C78.9314 21.8193 79.7358 20.2416 79.7358 18.2185C79.7358 15.6943 78.0359 14.3394 74.8366 14.3394C73.5863 14.3394 71.7425 14.3758 69.3241 14.4669C69.3653 16.2164 70.2629 17.9868 72.2315 17.8634L72.0148 17.8844H73.8495C74.8183 17.8844 75.2939 18.2371 75.2939 18.9609C75.2939 20.0189 74.6539 20.7057 73.3555 20.7057H68.1767L67.0673 27.0906H71.3452L71.8751 24.1209H73.1368Z" fill="white"/>
<path d="M69.286 14.4683C69.2648 14.5459 69.2419 14.6274 69.2189 14.7118L69.2605 14.4692L69.286 14.4683Z" fill="white"/>
<path d="M47.6112 0.259277H51.9693L50.8523 6.73812C50.1382 10.829 47.538 13.1243 43.601 13.1243C39.6641 13.1243 37.8696 10.829 38.5837 6.73812L39.7007 0.259277H44.0588L42.9418 6.73812C42.6671 8.23743 43.1433 9.07046 44.2968 9.07046C45.4505 9.07046 46.2195 8.23743 46.4942 6.73812L47.6112 0.259277Z" fill="white"/>
<path d="M68.2798 9.18149H69.5431L71.2092 12.8467H76.337L72.9126 6.14574L78.039 0.259277H72.9677L69.0118 4.97956L69.8359 0.259277H65.5514L63.3536 12.8467H67.6388L68.2798 9.18149Z" fill="white"/>
<path d="M6.78502 13.6103C10.5323 13.6103 13.57 10.5635 13.57 6.80515C13.57 3.04677 10.5323 0 6.78502 0C3.03776 0 0 3.04677 0 6.80515C0 10.5635 3.03776 13.6103 6.78502 13.6103Z" fill="#0088F6"/>
</g>
<defs>
<clipPath id="clip0">
<rect width="79.7358" height="27.2206" fill="white"/>
</clipPath>
</defs>
</svg>
